<?xml version="1.0" encoding="utf-8"?>
<!-- Generator: Adobe Illustrator 25.0.1, SVG Export Plug-In . SVG Version: 6.00 Build 0)  -->
<svg version="1.1" id="Layer_1" xmlns="http://www.w3.org/2000/svg" xmlns:xlink="http://www.w3.org/1999/xlink" x="0px" y="0px"
	 width="740px" height="599px" viewBox="0 0 740 599" style="enable-background:new 0 0 740 599;" xml:space="preserve">
<style type="text/css">
	.st0{display:none;}
	.st1{display:inline;}
	.st2{clip-path:url(#SVGID_2_);}
	.st3{fill:#FDDBDB;}
	.st4{fill:#FFFFFF;}
	.st5{fill:none;stroke:#FDDBDB;stroke-width:2.424;stroke-linecap:round;stroke-miterlimit:10;}
	.st6{clip-path:url(#SVGID_4_);}
	.st7{fill:#F56D6D;}
	.st8{clip-path:url(#SVGID_6_);}
	.st9{fill:none;stroke:#F56D6D;stroke-width:3;stroke-miterlimit:10;}
	.st10{fill:#EE0000;}
	.st11{fill:none;stroke:#FFFFFF;stroke-width:3;stroke-linecap:round;stroke-linejoin:round;}
	.st12{fill:none;stroke:#F56D6D;stroke-width:3;stroke-linejoin:round;}
	.st13{clip-path:url(#SVGID_8_);}
	.st14{fill:none;stroke:#FDDBDB;stroke-width:3;stroke-miterlimit:10;}
	.st15{clip-path:url(#SVGID_10_);}
	.st16{fill:none;stroke:#FDDBDB;stroke-width:3;stroke-linejoin:round;}
	.st17{clip-path:url(#SVGID_12_);}
	.st18{clip-path:url(#SVGID_14_);}
	.st19{clip-path:url(#SVGID_16_);}
	.st20{fill:none;stroke:#EE0000;stroke-width:3;stroke-miterlimit:10;}
	.st21{fill:none;stroke:#F56D6D;stroke-width:3;stroke-linecap:round;stroke-linejoin:round;}
	.st22{fill:none;stroke:#EE0000;stroke-width:3;stroke-linecap:round;stroke-linejoin:round;}
	.st23{clip-path:url(#SVGID_18_);}
	.st24{clip-path:url(#SVGID_20_);}
	.st25{clip-path:url(#SVGID_22_);}
	.st26{clip-path:url(#SVGID_24_);}
	.st27{clip-path:url(#SVGID_26_);}
	.st28{fill:none;stroke:#000000;stroke-width:3;stroke-linecap:round;stroke-linejoin:round;}
	.st29{clip-path:url(#SVGID_28_);}
	.st30{clip-path:url(#SVGID_30_);}
	.st31{clip-path:url(#SVGID_32_);}
	.st32{clip-path:url(#SVGID_34_);}
	.st33{clip-path:url(#SVGID_36_);}
	.st34{clip-path:url(#SVGID_38_);}
	.st35{clip-path:url(#SVGID_40_);}
	.st36{clip-path:url(#SVGID_42_);}
	.st37{clip-path:url(#SVGID_44_);}
	.st38{clip-path:url(#SVGID_46_);}
	.st39{clip-path:url(#SVGID_48_);}
	.st40{clip-path:url(#SVGID_50_);}
	.st41{clip-path:url(#SVGID_52_);}
	.st42{clip-path:url(#SVGID_54_);}
	.st43{clip-path:url(#SVGID_56_);}
	.st44{clip-path:url(#SVGID_58_);}
	.st45{clip-path:url(#SVGID_60_);}
	.st46{clip-path:url(#SVGID_62_);}
	.st47{clip-path:url(#SVGID_64_);}
	.st48{clip-path:url(#SVGID_66_);}
	.st49{clip-path:url(#SVGID_68_);}
	.st50{clip-path:url(#SVGID_70_);}
	.st51{clip-path:url(#SVGID_72_);}
	.st52{clip-path:url(#SVGID_74_);}
	.st53{clip-path:url(#SVGID_76_);}
	.st54{clip-path:url(#SVGID_78_);}
	.st55{clip-path:url(#SVGID_80_);}
	.st56{clip-path:url(#SVGID_82_);}
	.st57{clip-path:url(#SVGID_84_);}
	.st58{clip-path:url(#SVGID_86_);}
	.st59{clip-path:url(#SVGID_88_);}
	.st60{clip-path:url(#SVGID_90_);}
	.st61{clip-path:url(#SVGID_92_);}
	.st62{clip-path:url(#SVGID_94_);}
	.st63{clip-path:url(#SVGID_96_);}
	.st64{clip-path:url(#SVGID_98_);}
	.st65{clip-path:url(#SVGID_100_);}
	.st66{fill:none;stroke:#FFFFFF;stroke-width:3;stroke-miterlimit:10;}
	.st67{clip-path:url(#SVGID_102_);}
	.st68{fill:none;stroke:#000000;stroke-width:3;stroke-linejoin:round;}
	.st69{fill:none;stroke:#FDDBDB;stroke-width:3;stroke-linecap:round;stroke-linejoin:round;}
	.st70{clip-path:url(#SVGID_104_);}
	.st71{clip-path:url(#SVGID_106_);}
	.st72{clip-path:url(#SVGID_108_);}
	.st73{clip-path:url(#SVGID_110_);}
	.st74{clip-path:url(#SVGID_112_);}
	.st75{fill:#DEDEDE;}
	.st76{clip-path:url(#SVGID_114_);}
	.st77{fill:#FFFFFF;stroke:#000000;stroke-width:3;stroke-linecap:round;stroke-linejoin:round;}
	.st78{fill:none;}
	.st79{fill:#5F0000;}
	.st80{clip-path:url(#SVGID_116_);}
	.st81{fill:#8F0000;}
	.st82{fill:none;stroke:#000000;stroke-width:2.249;stroke-linecap:round;stroke-linejoin:round;}
	.st83{fill:none;stroke:#EE0000;stroke-width:2.499;stroke-linecap:round;stroke-linejoin:round;}
	.st84{fill:#AAAAAA;}
</style>
<g id="Layer_1_1_" class="st0">
	<g id="Group_5775" class="st1">
		<g>
			<g>
				<defs>
					<rect id="SVGID_1_" x="0.4" y="29.9" width="739.7" height="540.8"/>
				</defs>
				<clipPath id="SVGID_2_">
					<use xlink:href="#SVGID_1_"  style="overflow:visible;"/>
				</clipPath>
				<g id="Group_5774" class="st2">
					<path id="Path_2116" class="st3" d="M19.4,158.3c-53.8,101.5,15.4,187.6,99.2,252.9c81.5,63.6,100.9,152.6,219.9,159.1
						c139.1,7.7,158-106,247.5-182.2c82.2-70,137.6-161.4,91.5-252.1c-71.7-141-243.7-44.6-366-40.8S80.1,43.9,19.4,158.3"/>
					<path id="Path_2117" class="st4" d="M352.7,126.6c-12,0-21.8-9.8-21.8-21.8S340.7,83,352.8,83c1.8,0,3.6,0.2,5.4,0.7l0.8,0.2
						l0.3-0.7c4.8-11.3,15.6-18.8,27.9-19.2h0.6l0.2-0.6c9.2-24,36.2-36,60.2-26.8c10.5,4,19.2,11.7,24.4,21.6l0.4,0.7l0.7-0.2
						c18.3-5.6,37.8,4.7,43.4,23c5.6,18.3-4.7,37.8-23,43.4c-3.3,1-6.8,1.5-10.2,1.5H352.7z"/>
					<path id="Path_2118" class="st3" d="M431.4,34.4c16.9,0,32.4,9.3,40.3,24.3l0.7,1.4l1.5-0.5c17.8-5.5,36.8,4.5,42.3,22.4
						c5.5,17.8-4.5,36.8-22.4,42.3c-3.2,1-6.6,1.5-9.9,1.5H352.7c-11.5,0-20.9-9.4-20.9-20.9S341.2,84,352.7,84
						c1.7,0,3.5,0.2,5.1,0.7l1.6,0.4l0.6-1.5c4.6-10.9,15.2-18.2,27-18.6h1.2l0.4-1.2C395.6,46,412.5,34.4,431.4,34.4 M431.4,32.5
						c-19.7,0-37.3,12.1-44.3,30.5c-12.6,0.4-23.8,8.1-28.7,19.8c-12.2-3.1-24.6,4.2-27.7,16.4s4.2,24.6,16.4,27.7
						c1.9,0.5,3.8,0.7,5.7,0.7H484c19.7,0,35.7-16,35.7-35.7s-16-35.7-35.7-35.7c-3.5,0-7.1,0.5-10.5,1.6
						C465.2,42.2,449,32.5,431.4,32.5"/>
					<path id="Path_2119" class="st4" d="M431.4,40.2c14.7,0,28.3,8.1,35.2,21.2"/>
					<path id="Path_2120" class="st5" d="M431.4,40.2c14.7,0,28.3,8.1,35.2,21.2"/>
					<path id="Path_2121" class="st4" d="M483.9,63.9c15.4,0,28,12.5,28,28"/>
					<path id="Path_2122" class="st5" d="M483.9,63.9c15.4,0,28,12.5,28,28"/>
					<path id="Path_2123" class="st4" d="M322.3,467.7c-119.1,0-215.6-96.5-215.6-215.6c0-57.2,22.7-112,63.2-152.5
						c83.8-84.6,220.3-85.3,304.9-1.5s85.3,220.3,1.5,304.9c-0.5,0.5-1,1-1.5,1.5C434.4,445.1,379.5,467.8,322.3,467.7"/>
					<path id="Path_2124" class="st4" d="M322.3,37.6c118.4,0,214.5,96,214.5,214.5s-96,214.5-214.5,214.5s-214.5-96-214.5-214.5
						C107.8,133.6,203.9,37.6,322.3,37.6 M322.3,35.3c-119.8,0.1-216.8,97.2-216.7,217c0.1,87,52.2,165.6,132.3,199.5
						c110.3,46.6,237.5-5,284.1-115.4S517,98.9,406.7,52.3C380,41,351.3,35.2,322.3,35.3"/>
				</g>
			</g>
		</g>
	</g>
	<g id="Group_5777" transform="translate(69.209 4.954)" class="st1">
		<g>
			<g>
				<defs>
					<path id="SVGID_3_" d="M38.5,247c0,118.5,96,214.5,214.5,214.5s214.5-96,214.5-214.5S371.5,32.5,253,32.5S38.5,128.6,38.5,247
						L38.5,247"/>
				</defs>
				<clipPath id="SVGID_4_">
					<use xlink:href="#SVGID_3_"  style="overflow:visible;"/>
				</clipPath>
				<g id="Group_5776" class="st6">
					<path id="Path_2125" class="st3" d="M467.5,247c0,118.5-96,214.5-214.5,214.5S38.5,365.5,38.5,247S134.5,32.5,253,32.5
						S467.5,128.6,467.5,247L467.5,247"/>
					<path id="Path_2126" class="st7" d="M414.6,51.1c-3.6,0-7.1,0.5-10.5,1.6c-12.3-23.2-41.1-32-64.2-19.7
						c-10.1,5.4-18,14.2-22.1,24.9c-12.6,0.4-23.8,8.1-28.7,19.8c-12.2-3.1-24.6,4.2-27.7,16.4s4.2,24.6,16.4,27.7
						c1.8,0.5,3.7,0.7,5.7,0.7h131.2c19.7,0.1,35.8-15.7,35.9-35.4s-15.7-35.8-35.4-35.9C414.9,51.1,414.8,51.1,414.6,51.1"/>
					<path id="Path_2127" class="st7" d="M439.9,392.4c0,11.9-86.7,21.6-193.7,21.6s-193.7-9.7-193.7-21.6s86.7-21.6,193.7-21.6
						S439.9,380.5,439.9,392.4"/>
				</g>
			</g>
		</g>
	</g>
	<g id="Group_5779" transform="translate(202.463 4.954)" class="st1">
		<g>
			<g>
				<defs>
					<path id="SVGID_5_" d="M112.1,32.7v428.8c2.6,0.1,5.1,0.1,7.7,0.1c104.4,0,193.7-75.2,211.4-178.1v-72.8
						c-17.7-102.9-107-178.1-211.4-178.1C117.2,32.5,114.6,32.6,112.1,32.7"/>
				</defs>
				<clipPath id="SVGID_6_">
					<use xlink:href="#SVGID_5_"  style="overflow:visible;"/>
				</clipPath>
				<g id="Group_5778" class="st8">
					<rect id="Rectangle_1665" x="81.7" y="315" class="st4" width="62.5" height="62.5"/>
					<rect id="Rectangle_1666" x="81.7" y="315" class="st9" width="62.5" height="62.5"/>
					<path id="Path_2129" class="st3" d="M144.2,349.8l-62.5,10.1V315h62.5V349.8z"/>
					<rect id="Rectangle_1667" x="-50.7" y="138.8" class="st10" width="328" height="207.4"/>
					<rect id="Rectangle_1668" x="-42.8" y="146.6" class="st4" width="312.3" height="191.7"/>
					<line id="Line_217" class="st11" x1="0.7" y1="185.6" x2="78.6" y2="185.6"/>
					<path id="Path_2130" class="st4" d="M50.3,379.7v-8.3h94.4l30.6,8.3"/>
					<path id="Path_2131" class="st12" d="M50.3,379.7v-8.3h94.4l30.6,8.3"/>
					<rect id="Rectangle_1669" x="52.9" y="380.1" class="st4" width="122.3" height="10.8"/>
					<rect id="Rectangle_1670" x="52.9" y="380.1" class="st9" width="122.3" height="10.8"/>
				</g>
			</g>
		</g>
	</g>
	<g id="Group_5781" class="st1">
		<g>
			<g>
				<defs>
					<rect id="SVGID_7_" x="0.3" y="29.8" width="739.8" height="540.9"/>
				</defs>
				<clipPath id="SVGID_8_">
					<use xlink:href="#SVGID_7_"  style="overflow:visible;"/>
				</clipPath>
				<g id="Group_5780" class="st13">
					<path id="Path_2133" class="st4" d="M738.9,388.5c0,38.9-31.5,70.4-70.4,70.4s-70.4-31.5-70.4-70.4s31.5-70.4,70.4-70.4l0,0
						C707.4,318.1,738.9,349.6,738.9,388.5"/>
					<circle id="Ellipse_207" class="st14" cx="668.6" cy="388.5" r="70.4"/>
				</g>
			</g>
		</g>
	</g>
	<g id="Group_5783" transform="translate(69.209 5.025)" class="st1">
		<g>
			<g>
				<defs>
					<path id="SVGID_9_" d="M38.5,247c0,115.8,91.9,210.7,207.6,214.4V32.6C130.4,36.3,38.5,131.2,38.5,247"/>
				</defs>
				<clipPath id="SVGID_10_">
					<use xlink:href="#SVGID_9_"  style="overflow:visible;"/>
				</clipPath>
				<g id="Group_5782" class="st15">
					<path id="Path_2134" class="st4" d="M467.5,247c0,118.5-96,214.5-214.5,214.5S38.5,365.4,38.5,247
						c0-118.5,96-214.5,214.5-214.5S467.5,128.5,467.5,247L467.5,247"/>
					<path id="Path_2135" class="st3" d="M439.9,392.4c0,11.9-86.7,21.6-193.7,21.6s-193.7-9.7-193.7-21.6s86.7-21.6,193.7-21.6
						S439.9,380.4,439.9,392.4"/>
					<path id="Path_2136" class="st4" d="M277.4,380v-65H215v40.2c0,7.3-4.3,13.9-11,16.9l-17.9,7.9"/>
					<path id="Path_2137" class="st16" d="M277.4,380v-65H215v40.2c0,7.3-4.3,13.9-11,16.9l-17.9,7.9"/>
					<rect id="Rectangle_1672" x="186.1" y="380" class="st4" width="122.3" height="10.8"/>
					<rect id="Rectangle_1673" x="186.1" y="380" class="st12" width="122.3" height="10.8"/>
					<path id="Path_2138" class="st16" d="M186.1,390v-10h122.3"/>
				</g>
			</g>
		</g>
	</g>
	<g id="Group_5785" transform="translate(164.319 186.967)" class="st1">
		<g>
			<g>
				<defs>
					<path id="SVGID_11_" d="M119.9,133v40.2c0,7.3-4.3,13.9-11,16.9L91,198h60v-65H119.9z"/>
				</defs>
				<clipPath id="SVGID_12_">
					<use xlink:href="#SVGID_11_"  style="overflow:visible;"/>
				</clipPath>
				<g id="Group_5784" class="st17">
					<path id="Path_2140" class="st7" d="M182.3,167.8l-66.7,11l4.3-45.8h62.5v34.8H182.3z"/>
				</g>
			</g>
		</g>
	</g>
	<g id="Group_5787" transform="translate(69.209 5.025)" class="st1">
		<g>
			<g>
				<defs>
					<path id="SVGID_13_" d="M38.5,247c0,115.8,91.9,210.7,207.6,214.4V32.6C130.4,36.3,38.5,131.2,38.5,247"/>
				</defs>
				<clipPath id="SVGID_14_">
					<use xlink:href="#SVGID_13_"  style="overflow:visible;"/>
				</clipPath>
				<g id="Group_5786" class="st18">
					<path id="Path_2142" d="M399,346.3H93.4c-6.4,0-11.5-5.2-11.5-11.5l0,0V150.4c0-6.4,5.2-11.5,11.5-11.5l0,0H399
						c6.4,0,11.5,5.2,11.5,11.5l0,0v184.3C410.6,341.1,405.4,346.3,399,346.3L399,346.3"/>
					<path id="Path_2143" class="st4" d="M97,327.6v-170c0-2.1,1.7-3.8,3.8-3.8l0,0h291.3c4.2,0,7.7,3.4,7.7,7.7l0,0v162.3
						c0,4.2-3.4,7.7-7.7,7.7l0,0H100.8C98.7,331.4,97,329.7,97,327.6"/>
				</g>
			</g>
		</g>
	</g>
	<g id="Group_5789" class="st1">
		<g>
			<g>
				<defs>
					<rect id="SVGID_15_" x="0.3" y="29.8" width="739.8" height="540.9"/>
				</defs>
				<clipPath id="SVGID_16_">
					<use xlink:href="#SVGID_15_"  style="overflow:visible;"/>
				</clipPath>
				<g id="Group_5788" class="st19">
					<rect id="Rectangle_1674" x="191.6" y="187.1" class="st3" width="244.4" height="135.6"/>
					<rect id="Rectangle_1675" x="197.9" y="180.8" width="244.4" height="135.6"/>
					<rect id="Rectangle_1676" x="197.9" y="180.8" class="st20" width="244.4" height="135.6"/>
					<rect id="Rectangle_1677" x="197.9" y="180.8" class="st10" width="244.4" height="27.3"/>
					<line id="Line_218" class="st11" x1="211.6" y1="194.4" x2="312.6" y2="194.4"/>
					<path id="Path_2145" class="st4" d="M409.2,190.4c2.2,0,4,1.8,4,4s-1.8,4-4,4s-4-1.8-4-4S407,190.4,409.2,190.4L409.2,190.4"/>
					<path id="Path_2146" class="st4" d="M425,190.4c2.2,0,4,1.8,4,4s-1.8,4-4,4s-4-1.8-4-4S422.8,190.4,425,190.4L425,190.4"/>
					<line id="Line_219" class="st21" x1="234.7" y1="235.4" x2="259.4" y2="235.4"/>
					<line id="Line_220" class="st11" x1="227" y1="249.5" x2="279.5" y2="249.5"/>
					<line id="Line_221" class="st21" x1="234.7" y1="263.6" x2="259.4" y2="263.6"/>
					<line id="Line_222" class="st11" x1="242.4" y1="277.6" x2="312.6" y2="277.6"/>
					<line id="Line_223" class="st21" x1="234.7" y1="291.7" x2="281.1" y2="291.7"/>
					<line id="Line_224" class="st11" x1="227" y1="305.8" x2="304.9" y2="305.8"/>
					<line id="Line_225" class="st22" x1="211.6" y1="221.3" x2="211.6" y2="306.2"/>
					<line id="Line_226" class="st11" x1="294.9" y1="221.3" x2="227" y2="221.3"/>
				</g>
			</g>
		</g>
	</g>
	<g id="Group_5791" transform="translate(213.469 126.714)" class="st1">
		<g>
			<g>
				<defs>
					<path id="SVGID_17_" d="M137.7,135.7c-1-8,4.7-15.3,12.8-16.3c8-1,15.3,4.7,16.3,12.8c1,8-4.7,15.3-12.8,16.3
						c-0.6,0.1-1.2,0.1-1.8,0.1C144.8,148.5,138.6,143,137.7,135.7 M148.1,100c-18.7,2.3-32,19.3-29.7,38s19.3,32,38,29.7
						s32-19.3,29.7-38c-2.1-17.1-16.6-29.9-33.8-30C150.9,99.8,149.5,99.8,148.1,100"/>
				</defs>
				<clipPath id="SVGID_18_">
					<use xlink:href="#SVGID_17_"  style="overflow:visible;"/>
				</clipPath>
				<g id="Group_5790" class="st23">
					<path id="Path_2147" class="st10" d="M186.1,129.8c2.3,18.7-11,35.7-29.8,38c-18.7,2.3-35.7-11-38-29.8
						c-2.3-18.7,11-35.7,29.8-38C166.8,97.7,183.9,111,186.1,129.8"/>
					<path id="Path_2148" class="st4" d="M116.8,103.8l35.5,30.1l44.4-5.4c0,0,3.9-22.3-22.9-36S116.8,103.8,116.8,103.8"/>
					<path id="Path_2149" class="st7" d="M115.3,123.9l37,10l21-35.8c0,0-22.7-10.4-38.5-3.6C119,101.2,115.3,123.9,115.3,123.9"/>
					<path id="Path_2150" class="st3" d="M152.3,133.9l28.8-28.4c0,0-12.7-9.8-21.6-10.3L152.3,133.9z"/>
				</g>
			</g>
		</g>
	</g>
	<g id="Group_5793" transform="translate(5.802 160.994)" class="st1">
		<g>
			<g>
				<defs>
					<path id="SVGID_19_" d="M3.5,212.1c0,51.6,41.8,93.4,93.4,93.4s93.4-41.8,93.4-93.4s-41.8-93.4-93.4-93.4
						C45.3,118.7,3.5,160.5,3.5,212.1L3.5,212.1"/>
				</defs>
				<clipPath id="SVGID_20_">
					<use xlink:href="#SVGID_19_"  style="overflow:visible;"/>
				</clipPath>
				<g id="Group_5792" class="st24">
					<path id="Path_2152" class="st4" d="M96.9,304.4c-51,0-92.3-41.3-92.3-92.3s41.3-92.3,92.3-92.3s92.3,41.3,92.3,92.3
						C189.1,263,147.8,304.3,96.9,304.4"/>
					<path id="Path_2153" class="st3" d="M96.9,121c50.3,0,91.1,40.8,91.1,91.1s-40.8,91.1-91.1,91.1S5.8,262.4,5.8,212.1
						c0-24.2,9.6-47.3,26.7-64.4C49.5,130.5,72.7,120.9,96.9,121 M96.9,118.7c-51.6,0-93.4,41.8-93.4,93.4s41.8,93.4,93.4,93.4
						s93.4-41.8,93.4-93.4S148.5,118.7,96.9,118.7L96.9,118.7"/>
					<rect id="Rectangle_1679" x="127.3" y="252.5" class="st3" width="36.9" height="40"/>
					<rect id="Rectangle_1680" x="20.4" y="149.4" class="st3" width="36.9" height="40"/>
					<path id="Path_2154" class="st7" d="M530.9,91c0,118.5-96,214.5-214.5,214.5S101.9,209.5,101.9,91s96-214.5,214.5-214.5
						S530.9-27.5,530.9,91L530.9,91"/>
				</g>
			</g>
		</g>
	</g>
	<g id="Group_5795" transform="translate(85.556 247.188)" class="st1">
		<g>
			<g>
				<defs>
					<path id="SVGID_21_" d="M47.5,166.3v40h17.3c7.2-4.3,13.8-9.5,19.6-15.5v-24.4H47.5V166.3z"/>
				</defs>
				<clipPath id="SVGID_22_">
					<use xlink:href="#SVGID_21_"  style="overflow:visible;"/>
				</clipPath>
				<g id="Group_5794" class="st25">
					<rect id="Rectangle_1681" x="17.5" y="145.5" class="st7" width="36.9" height="40"/>
				</g>
			</g>
		</g>
	</g>
	<g id="Group_5797" transform="translate(16.699 180.809)" class="st1">
		<g>
			<g>
				<defs>
					<path id="SVGID_23_" d="M16.7,129.6c-2.6,2.9-5,5.9-7.2,9v30.9h36.9v-40H16.7V129.6z"/>
				</defs>
				<clipPath id="SVGID_24_">
					<use xlink:href="#SVGID_23_"  style="overflow:visible;"/>
				</clipPath>
				<g id="Group_5796" class="st26">
					<rect id="Rectangle_1682" x="33.3" y="155.8" class="st7" width="36.9" height="40"/>
				</g>
			</g>
		</g>
	</g>
	<g id="Group_5799" transform="translate(5.802 160.994)" class="st1">
		<g>
			<g>
				<defs>
					<path id="SVGID_25_" d="M3.5,212.1c0,51.6,41.8,93.4,93.4,93.4s93.4-41.8,93.4-93.4s-41.8-93.4-93.4-93.4
						C45.3,118.7,3.5,160.5,3.5,212.1L3.5,212.1"/>
				</defs>
				<clipPath id="SVGID_26_">
					<use xlink:href="#SVGID_25_"  style="overflow:visible;"/>
				</clipPath>
				<g id="Group_5798" class="st27">
					<line id="Line_227" class="st28" x1="78" y1="203.3" x2="78" y2="211.7"/>
					<line id="Line_228" class="st28" x1="55" y1="203.3" x2="55" y2="211.7"/>
					<line id="Line_229" class="st28" x1="70.4" y1="203.3" x2="70.4" y2="211.7"/>
					<line id="Line_230" class="st28" x1="62.7" y1="203.3" x2="62.7" y2="211.7"/>
					<line id="Line_231" class="st28" x1="110" y1="203.3" x2="110" y2="211.7"/>
					<line id="Line_232" class="st28" x1="133" y1="203.3" x2="133" y2="211.7"/>
					<line id="Line_233" class="st28" x1="117.6" y1="203.3" x2="117.6" y2="211.7"/>
					<line id="Line_234" class="st28" x1="125.3" y1="203.3" x2="125.3" y2="211.7"/>
					<line id="Line_235" class="st28" x1="106.9" y1="252.1" x2="98.4" y2="252.1"/>
					<line id="Line_236" class="st28" x1="106.9" y1="229" x2="98.4" y2="229"/>
					<line id="Line_237" class="st28" x1="106.9" y1="244.4" x2="98.4" y2="244.4"/>
					<line id="Line_238" class="st28" x1="106.9" y1="236.7" x2="98.4" y2="236.7"/>
					<line id="Line_239" class="st28" x1="106.9" y1="179.8" x2="98.4" y2="179.8"/>
					<line id="Line_240" class="st28" x1="106.9" y1="202.9" x2="98.4" y2="202.9"/>
					<line id="Line_241" class="st28" x1="106.9" y1="187.5" x2="98.4" y2="187.5"/>
					<line id="Line_242" class="st28" x1="106.9" y1="195.2" x2="98.4" y2="195.2"/>
					<rect id="Rectangle_1683" x="48.8" y="167.9" class="st10" width="36.9" height="40"/>
					<path id="Path_2158" class="st21" d="M58.8,177.9h16.9v20"/>
					<line id="Line_243" class="st22" x1="81.5" y1="176" x2="90" y2="176"/>
					<line id="Line_244" class="st22" x1="81.5" y1="199" x2="90" y2="199"/>
					<line id="Line_245" class="st22" x1="81.5" y1="183.7" x2="90" y2="183.7"/>
					<line id="Line_246" class="st22" x1="81.5" y1="191.3" x2="90" y2="191.3"/>
					<rect id="Rectangle_1684" x="102.3" y="167.9" class="st10" width="36.9" height="40"/>
					<path id="Path_2159" class="st21" d="M112.3,177.9h16.9v20"/>
					<rect id="Rectangle_1685" x="48.8" y="224" class="st10" width="36.9" height="40"/>
					<path id="Path_2160" class="st21" d="M58.8,234h16.9v20"/>
					<line id="Line_247" class="st22" x1="81.5" y1="255.9" x2="90" y2="255.9"/>
					<line id="Line_248" class="st22" x1="81.5" y1="232.9" x2="90" y2="232.9"/>
					<line id="Line_249" class="st22" x1="81.5" y1="248.2" x2="90" y2="248.2"/>
					<line id="Line_250" class="st22" x1="81.5" y1="240.5" x2="90" y2="240.5"/>
					<line id="Line_251" class="st22" x1="81.9" y1="228.6" x2="81.9" y2="220.2"/>
					<line id="Line_252" class="st22" x1="58.8" y1="228.6" x2="58.8" y2="220.2"/>
					<line id="Line_253" class="st22" x1="74.2" y1="228.6" x2="74.2" y2="220.2"/>
					<line id="Line_254" class="st22" x1="66.5" y1="228.6" x2="66.5" y2="220.2"/>
					<rect id="Rectangle_1686" x="102.3" y="224" class="st10" width="36.9" height="40"/>
					<path id="Path_2161" class="st21" d="M112.3,234h16.9v20"/>
					<line id="Line_255" class="st22" x1="106.1" y1="228.6" x2="106.1" y2="220.2"/>
					<line id="Line_256" class="st22" x1="129.2" y1="228.6" x2="129.2" y2="220.2"/>
					<line id="Line_257" class="st22" x1="113.8" y1="228.6" x2="113.8" y2="220.2"/>
					<line id="Line_258" class="st22" x1="121.5" y1="228.6" x2="121.5" y2="220.2"/>
				</g>
			</g>
		</g>
	</g>
	<g id="Group_5906" transform="translate(252.742 112.448)" class="st1">
		<g>
			<g>
				<defs>
					<path id="SVGID_27_" d="M139.8,223c0,72.4,58.7,131.1,131.1,131.1S402,295.4,402,223S343.3,91.9,270.9,91.9l0,0
						C198.5,91.9,139.8,150.6,139.8,223"/>
				</defs>
				<clipPath id="SVGID_28_">
					<use xlink:href="#SVGID_27_"  style="overflow:visible;"/>
				</clipPath>
				<g id="Group_5905" class="st29">
					<path id="Path_2163" class="st4" d="M402,223c0,72.4-58.7,131.1-131.1,131.1S139.8,295.4,139.8,223S198.5,91.9,270.9,91.9
						C343.3,91.9,402,150.6,402,223L402,223"/>
					<path id="Path_2164" class="st3" d="M284,139.5C284,258,188,354,69.5,354S-145,258-145,139.5C-145.1,21.1-49-75,69.5-75
						C187.9-75,284,21.1,284,139.5L284,139.5"/>
					<g id="Group_5814" transform="translate(47.504 20.31)">
						<g id="Group_5813">
							<g>
								<g>
									<defs>
										<rect id="SVGID_29_" x="166" y="103.1" width="41.6" height="48.9"/>
									</defs>
									<clipPath id="SVGID_30_">
										<use xlink:href="#SVGID_29_"  style="overflow:visible;"/>
									</clipPath>
									<g id="Group_5812" class="st30">
										<g id="Group_5811">
											<g id="Group_5810">
												<g>
													<g>
														<defs>
															<rect id="SVGID_31_" x="166" y="103.1" width="41.6" height="48.9"/>
														</defs>
														<clipPath id="SVGID_32_">
															<use xlink:href="#SVGID_31_"  style="overflow:visible;"/>
														</clipPath>
														<g id="Group_5809" class="st31">
															<g id="Group_5802" transform="translate(0.042)">
																<g id="Group_5801">
																	<g>
																		<g>
																			<defs>
																				<rect id="SVGID_33_" x="166.1" y="103.1" width="41.5" height="24"/>
																			</defs>
																			<clipPath id="SVGID_34_">
																				<use xlink:href="#SVGID_33_"  style="overflow:visible;"/>
																			</clipPath>
																			<g id="Group_5800" class="st32">
																				<path id="Path_2165" class="st7" d="M207.6,115.1l-20.7,12l-20.8-12l20.7-12L207.6,115.1z"/>
																			</g>
																		</g>
																	</g>
																</g>
															</g>
															<g id="Group_5805" transform="translate(13.414 7.745)">
																<g id="Group_5804">
																	<g>
																		<g>
																			<defs>
																				<rect id="SVGID_35_" x="173.5" y="107.4" width="20.7" height="36.8"/>
																			</defs>
																			<clipPath id="SVGID_36_">
																				<use xlink:href="#SVGID_35_"  style="overflow:visible;"/>
																			</clipPath>
																			<g id="Group_5803" class="st33">
																				<path id="Path_2166" class="st7" d="M194.2,107.4l-0.1,24.8l-20.7,12l0.1-24.8L194.2,107.4z"/>
																			</g>
																		</g>
																	</g>
																</g>
															</g>
															<g id="Group_5808" transform="translate(0 7.742)">
																<g id="Group_5807">
																	<g>
																		<g>
																			<defs>
																				<rect id="SVGID_37_" x="166" y="107.4" width="20.9" height="36.8"/>
																			</defs>
																			<clipPath id="SVGID_38_">
																				<use xlink:href="#SVGID_37_"  style="overflow:visible;"/>
																			</clipPath>
																			<g id="Group_5806" class="st34">
																				<path id="Path_2167" class="st7" d="M186.9,119.4l-0.1,24.8l-20.8-12l0.1-24.8L186.9,119.4z"/>
																			</g>
																		</g>
																	</g>
																</g>
															</g>
														</g>
													</g>
												</g>
											</g>
										</g>
									</g>
								</g>
							</g>
						</g>
					</g>
					<g id="Group_5845" transform="translate(14.557 61.426)">
						<g id="Group_5844">
							<g>
								<g>
									<defs>
										<rect id="SVGID_39_" x="147.9" y="125.8" width="113.9" height="96.1"/>
									</defs>
									<clipPath id="SVGID_40_">
										<use xlink:href="#SVGID_39_"  style="overflow:visible;"/>
									</clipPath>
									<g id="Group_5843" class="st35">
										<g id="Group_5826">
											<g id="Group_5825">
												<g>
													<g>
														<defs>
															<rect id="SVGID_41_" x="147.9" y="125.8" width="65.4" height="76.9"/>
														</defs>
														<clipPath id="SVGID_42_">
															<use xlink:href="#SVGID_41_"  style="overflow:visible;"/>
														</clipPath>
														<g id="Group_5824" class="st36">
															<g id="Group_5817" transform="translate(0.065)">
																<g id="Group_5816">
																	<g>
																		<g>
																			<defs>
																				<rect id="SVGID_43_" x="147.9" y="125.8" width="65.3" height="37.8"/>
																			</defs>
																			<clipPath id="SVGID_44_">
																				<use xlink:href="#SVGID_43_"  style="overflow:visible;"/>
																			</clipPath>
																			<g id="Group_5815" class="st37">
																				<path id="Path_2168" class="st7" d="M213.2,144.7l-32.5,18.9l-32.8-18.9l32.5-18.9L213.2,144.7z"/>
																			</g>
																		</g>
																	</g>
																</g>
															</g>
															<g id="Group_5820" transform="translate(21.113 12.19)">
																<g id="Group_5819">
																	<g>
																		<g>
																			<defs>
																				<rect id="SVGID_45_" x="159.5" y="132.5" width="32.6" height="58"/>
																			</defs>
																			<clipPath id="SVGID_46_">
																				<use xlink:href="#SVGID_45_"  style="overflow:visible;"/>
																			</clipPath>
																			<g id="Group_5818" class="st38">
																				<path id="Path_2169" class="st7" d="M192.2,132.5l-0.1,39.1l-32.5,18.9l0.1-39.1L192.2,132.5z"/>
																			</g>
																		</g>
																	</g>
																</g>
															</g>
															<g id="Group_5823" transform="translate(0 12.185)">
																<g id="Group_5822">
																	<g>
																		<g>
																			<defs>
																				<rect id="SVGID_47_" x="147.9" y="132.5" width="32.9" height="58"/>
																			</defs>
																			<clipPath id="SVGID_48_">
																				<use xlink:href="#SVGID_47_"  style="overflow:visible;"/>
																			</clipPath>
																			<g id="Group_5821" class="st39">
																				<path id="Path_2170" class="st7" d="M180.7,151.4l-0.1,39.1l-32.8-18.9l0.1-39.1L180.7,151.4z"/>
																			</g>
																		</g>
																	</g>
																</g>
															</g>
														</g>
													</g>
												</g>
											</g>
										</g>
										<g id="Group_5829">
											<g id="Group_5828">
												<g>
													<g>
														<defs>
															<rect id="SVGID_49_" x="147.9" y="125.8" width="65.4" height="76.9"/>
														</defs>
														<clipPath id="SVGID_50_">
															<use xlink:href="#SVGID_49_"  style="overflow:visible;"/>
														</clipPath>
														<g id="Group_5827" class="st40">
															<path id="Path_2171" class="st7" d="M180.5,125.8L148,144.7l-0.1,39.1l32.8,18.9l32.5-18.9l0.1-39.1L180.5,125.8z"/>
														</g>
													</g>
												</g>
											</g>
										</g>
										<g id="Group_5841">
											<g>
												<g>
													<defs>
														<polygon id="SVGID_51_" points="180.5,125.8 148,144.7 147.9,183.8 180.6,202.7 213.2,183.8 213.3,144.7 
																													"/>
													</defs>
													<clipPath id="SVGID_52_">
														<use xlink:href="#SVGID_51_"  style="overflow:visible;"/>
													</clipPath>
													<g id="Group_5840" class="st41">
														<g id="Group_5832" transform="translate(31.274 12.384)">
															<g id="Group_5831">
																<g>
																	<g>
																		<defs>
																			<rect id="SVGID_53_" x="165.1" y="132.6" width="65.3" height="37.8"/>
																		</defs>
																		<clipPath id="SVGID_54_">
																			<use xlink:href="#SVGID_53_"  style="overflow:visible;"/>
																		</clipPath>
																		<g id="Group_5830" class="st42">
																			<path id="Path_2172" class="st7" d="M230.4,151.5l-32.5,18.9l-32.8-18.9l32.5-18.9L230.4,151.5z"/>
																		</g>
																	</g>
																</g>
															</g>
														</g>
														<g id="Group_5835" transform="translate(52.321 24.574)">
															<g id="Group_5834">
																<g>
																	<g>
																		<defs>
																			<rect id="SVGID_55_" x="176.7" y="139.4" width="32.6" height="58"/>
																		</defs>
																		<clipPath id="SVGID_56_">
																			<use xlink:href="#SVGID_55_"  style="overflow:visible;"/>
																		</clipPath>
																		<g id="Group_5833" class="st43">
																			<path id="Path_2173" class="st7" d="M209.4,139.4l-0.1,39.1l-32.5,18.9l0.1-39.1L209.4,139.4z"/>
																		</g>
																	</g>
																</g>
															</g>
														</g>
														<g id="Group_5838" transform="translate(31.208 24.569)">
															<g id="Group_5837">
																<g>
																	<g>
																		<defs>
																			<rect id="SVGID_57_" x="165.1" y="139.4" width="32.9" height="58"/>
																		</defs>
																		<clipPath id="SVGID_58_">
																			<use xlink:href="#SVGID_57_"  style="overflow:visible;"/>
																		</clipPath>
																		<g id="Group_5836" class="st44">
																			<path id="Path_2174" class="st7" d="M198,158.3l-0.1,39.1l-32.8-18.9l0.1-39.1L198,158.3z"/>
																		</g>
																	</g>
																</g>
															</g>
														</g>
													</g>
												</g>
											</g>
										</g>
									</g>
								</g>
							</g>
						</g>
					</g>
					<g id="Group_5860" transform="translate(51.715 11.393)">
						<g id="Group_5859">
							<g>
								<g>
									<defs>
										<rect id="SVGID_59_" x="168.4" y="98.2" width="42.7" height="50"/>
									</defs>
									<clipPath id="SVGID_60_">
										<use xlink:href="#SVGID_59_"  style="overflow:visible;"/>
									</clipPath>
									<g id="Group_5858" class="st45">
										<g id="Group_5857">
											<g id="Group_5856">
												<g>
													<g>
														<defs>
															<rect id="SVGID_61_" x="168.4" y="98.2" width="42.7" height="50"/>
														</defs>
														<clipPath id="SVGID_62_">
															<use xlink:href="#SVGID_61_"  style="overflow:visible;"/>
														</clipPath>
														<g id="Group_5855" class="st46">
															<g id="Group_5848" transform="translate(0.785)">
																<g id="Group_5847">
																	<g>
																		<g>
																			<defs>
																				<rect id="SVGID_63_" x="168.8" y="98.2" width="41.5" height="24"/>
																			</defs>
																			<clipPath id="SVGID_64_">
																				<use xlink:href="#SVGID_63_"  style="overflow:visible;"/>
																			</clipPath>
																			<g id="Group_5846" class="st47">
																				<path id="Path_2176" class="st4" d="M210.3,110.2l-20.7,12l-20.8-12l20.7-12L210.3,110.2z"/>
																			</g>
																		</g>
																	</g>
																</g>
															</g>
															<g id="Group_5851" transform="translate(14.157 7.745)">
																<g id="Group_5850">
																	<g>
																		<g>
																			<defs>
																				<rect id="SVGID_65_" x="176.2" y="102.4" width="20.7" height="36.8"/>
																			</defs>
																			<clipPath id="SVGID_66_">
																				<use xlink:href="#SVGID_65_"  style="overflow:visible;"/>
																			</clipPath>
																			<g id="Group_5849" class="st48">
																				<path id="Path_2177" class="st4" d="M196.9,102.4l-0.1,24.8l-20.7,12l0.1-24.8L196.9,102.4z"/>
																			</g>
																		</g>
																	</g>
																</g>
															</g>
															<g id="Group_5854" transform="translate(0 6.999)">
																<g id="Group_5853">
																	<g>
																		<g>
																			<defs>
																				<rect id="SVGID_67_" x="168.4" y="102" width="23.2" height="39.1"/>
																			</defs>
																			<clipPath id="SVGID_68_">
																				<use xlink:href="#SVGID_67_"  style="overflow:visible;"/>
																			</clipPath>
																			<g id="Group_5852" class="st49">
																				<path id="Path_2178" class="st3" d="M170.7,127.3l0.1-22.2l18.5,10.7l-0.1,22.2L170.7,127.3z"/>
																				<path id="Path_2179" class="st4" d="M171.9,107.2l16.2,9.4v19.5l-16.2-9.4V107.2z M169.6,103.2l-0.1,24.8
																					l20.8,12l0.1-24.8L169.6,103.2z"/>
																			</g>
																		</g>
																	</g>
																</g>
															</g>
														</g>
													</g>
												</g>
											</g>
										</g>
									</g>
								</g>
							</g>
						</g>
					</g>
					<g id="Group_5875" transform="translate(50.027 129.423)">
						<g id="Group_5874">
							<g>
								<g>
									<defs>
										<rect id="SVGID_69_" x="167.4" y="163.3" width="46.1" height="50.2"/>
									</defs>
									<clipPath id="SVGID_70_">
										<use xlink:href="#SVGID_69_"  style="overflow:visible;"/>
									</clipPath>
									<g id="Group_5873" class="st50">
										<g id="Group_5872">
											<g id="Group_5871">
												<g>
													<g>
														<defs>
															<rect id="SVGID_71_" x="167.4" y="163.3" width="46.1" height="50.2"/>
														</defs>
														<clipPath id="SVGID_72_">
															<use xlink:href="#SVGID_71_"  style="overflow:visible;"/>
														</clipPath>
														<g id="Group_5870" class="st51">
															<g id="Group_5863">
																<g id="Group_5862">
																	<g>
																		<g>
																			<defs>
																				<rect id="SVGID_73_" x="167.4" y="163.3" width="46.1" height="26.7"/>
																			</defs>
																			<clipPath id="SVGID_74_">
																				<use xlink:href="#SVGID_73_"  style="overflow:visible;"/>
																			</clipPath>
																			<g id="Group_5861" class="st52">
																				<path id="Path_2180" class="st4" d="M172,176.7l18.4-10.7l18.5,10.7l-18.4,10.7L172,176.7z"/>
																				<path id="Path_2181" class="st3" d="M190.4,167.3l16.2,9.4l-16.1,9.3l-16.2-9.4L190.4,167.3z M190.4,164.7
																					l-20.7,12l20.8,12l20.7-12L190.4,164.7z"/>
																			</g>
																		</g>
																	</g>
																</g>
															</g>
															<g id="Group_5866" transform="translate(14.855 8.603)">
																<g id="Group_5865">
																	<g>
																		<g>
																			<defs>
																				<rect id="SVGID_75_" x="175.6" y="168.1" width="20.7" height="36.8"/>
																			</defs>
																			<clipPath id="SVGID_76_">
																				<use xlink:href="#SVGID_75_"  style="overflow:visible;"/>
																			</clipPath>
																			<g id="Group_5864" class="st53">
																				<path id="Path_2182" class="st3" d="M196.4,168.1l-0.1,24.8l-20.7,12l0.1-24.8L196.4,168.1z"/>
																			</g>
																		</g>
																	</g>
																</g>
															</g>
															<g id="Group_5869" transform="translate(1.441 8.6)">
																<g id="Group_5868">
																	<g>
																		<g>
																			<defs>
																				<rect id="SVGID_77_" x="168.2" y="168.1" width="20.9" height="36.8"/>
																			</defs>
																			<clipPath id="SVGID_78_">
																				<use xlink:href="#SVGID_77_"  style="overflow:visible;"/>
																			</clipPath>
																			<g id="Group_5867" class="st54">
																				<path id="Path_2183" class="st7" d="M189.1,180.1l-0.1,24.8l-20.8-12l0.1-24.8L189.1,180.1z"/>
																			</g>
																		</g>
																	</g>
																</g>
															</g>
														</g>
													</g>
												</g>
											</g>
										</g>
									</g>
								</g>
							</g>
						</g>
					</g>
					<g id="Group_5904" transform="translate(18.767 52.509)">
						<g id="Group_5903">
							<g>
								<g>
									<defs>
										<rect id="SVGID_79_" x="150.2" y="120.9" width="115" height="96.1"/>
									</defs>
									<clipPath id="SVGID_80_">
										<use xlink:href="#SVGID_79_"  style="overflow:visible;"/>
									</clipPath>
									<g id="Group_5902" class="st55">
										<g id="Group_5887">
											<g id="Group_5886">
												<g>
													<g>
														<defs>
															<rect id="SVGID_81_" x="150.2" y="120.9" width="66.6" height="78"/>
														</defs>
														<clipPath id="SVGID_82_">
															<use xlink:href="#SVGID_81_"  style="overflow:visible;"/>
														</clipPath>
														<g id="Group_5885" class="st56">
															<g id="Group_5878" transform="translate(0.808)">
																<g id="Group_5877">
																	<g>
																		<g>
																			<defs>
																				<rect id="SVGID_83_" x="150.6" y="120.9" width="65.3" height="37.8"/>
																			</defs>
																			<clipPath id="SVGID_84_">
																				<use xlink:href="#SVGID_83_"  style="overflow:visible;"/>
																			</clipPath>
																			<g id="Group_5876" class="st57">
																				<path id="Path_2184" class="st4" d="M215.9,139.8l-32.5,18.9l-32.8-18.9l32.5-18.9L215.9,139.8z"/>
																			</g>
																		</g>
																	</g>
																</g>
															</g>
															<g id="Group_5881" transform="translate(21.856 12.19)">
																<g id="Group_5880">
																	<g>
																		<g>
																			<defs>
																				<rect id="SVGID_85_" x="162.2" y="127.6" width="32.6" height="58"/>
																			</defs>
																			<clipPath id="SVGID_86_">
																				<use xlink:href="#SVGID_85_"  style="overflow:visible;"/>
																			</clipPath>
																			<g id="Group_5879" class="st58">
																				<path id="Path_2185" class="st4" d="M194.9,127.6l-0.1,39.1l-32.5,18.9l0.1-39.1L194.9,127.6z"/>
																			</g>
																		</g>
																	</g>
																</g>
															</g>
															<g id="Group_5884" transform="translate(0 11.441)">
																<g id="Group_5883">
																	<g>
																		<g>
																			<defs>
																				<rect id="SVGID_87_" x="150.2" y="127.2" width="35.2" height="60.3"/>
																			</defs>
																			<clipPath id="SVGID_88_">
																				<use xlink:href="#SVGID_87_"  style="overflow:visible;"/>
																			</clipPath>
																			<g id="Group_5882" class="st59">
																				<path id="Path_2186" class="st3" d="M152.5,166.7l0.1-36.4l30.5,17.6l-0.1,36.4L152.5,166.7z"/>
																				<path id="Path_2187" class="st4" d="M153.7,132.3l28.2,16.3l-0.1,33.7L153.6,166L153.7,132.3z M151.4,128.3
																					l-0.1,39.1l32.8,18.9l0.1-39.1L151.4,128.3z"/>
																			</g>
																		</g>
																	</g>
																</g>
															</g>
														</g>
													</g>
												</g>
											</g>
										</g>
										<g id="Group_5900" transform="translate(0.743)">
											<g>
												<g>
													<defs>
														<polygon id="SVGID_89_" points="183.2,120.9 150.7,139.8 150.6,178.8 183.4,197.8 215.9,178.8 216,139.8 
																													"/>
													</defs>
													<clipPath id="SVGID_90_">
														<use xlink:href="#SVGID_89_"  style="overflow:visible;"/>
													</clipPath>
													<g id="Group_5899" class="st60">
														<g id="Group_5891" transform="translate(31.274 10.898)">
															<g id="Group_5890">
																<g>
																	<g>
																		<defs>
																			<rect id="SVGID_91_" x="167.9" y="126.9" width="65.3" height="37.8"/>
																		</defs>
																		<clipPath id="SVGID_92_">
																			<use xlink:href="#SVGID_91_"  style="overflow:visible;"/>
																		</clipPath>
																		<g id="Group_5889" class="st61">
																			<path id="Path_2188" class="st3" d="M233.2,145.8l-32.5,18.9l-32.8-18.9l32.5-18.9L233.2,145.8z"/>
																		</g>
																	</g>
																</g>
															</g>
														</g>
														<g id="Group_5894" transform="translate(52.321 24.574)">
															<g id="Group_5893">
																<g>
																	<g>
																		<defs>
																			<rect id="SVGID_93_" x="179.5" y="134.4" width="32.6" height="58"/>
																		</defs>
																		<clipPath id="SVGID_94_">
																			<use xlink:href="#SVGID_93_"  style="overflow:visible;"/>
																		</clipPath>
																		<g id="Group_5892" class="st62">
																			<path id="Path_2189" class="st3" d="M212.1,134.4l-0.1,39.1l-32.5,18.9l0.1-39.1L212.1,134.4z"/>
																		</g>
																	</g>
																</g>
															</g>
														</g>
														<g id="Group_5897" transform="translate(31.208 23.083)">
															<g id="Group_5896">
																<g>
																	<g>
																		<defs>
																			<rect id="SVGID_95_" x="167.8" y="133.6" width="32.9" height="58"/>
																		</defs>
																		<clipPath id="SVGID_96_">
																			<use xlink:href="#SVGID_95_"  style="overflow:visible;"/>
																		</clipPath>
																		<g id="Group_5895" class="st63">
																			<path id="Path_2190" class="st3" d="M200.7,152.5l-0.1,39.1l-32.8-18.9l0.1-39.1L200.7,152.5z"/>
																		</g>
																	</g>
																</g>
															</g>
														</g>
													</g>
												</g>
											</g>
										</g>
									</g>
								</g>
							</g>
						</g>
					</g>
					<path id="Path_2192" class="st10" d="M329.7,208l-49,28.5L231.4,208l49-28.5L329.7,208z"/>
					<path id="Path_2193" class="st7" d="M329.7,208l-0.2,58.8l-49,28.5l0.2-58.8L329.7,208z"/>
					<path id="Path_2194" class="st10" d="M280.7,236.5l-0.2,58.8l-49.3-28.5l0.2-58.8L280.7,236.5z"/>
				</g>
			</g>
		</g>
	</g>
	<g id="Group_5908" transform="translate(311.636 187.262)" class="st1">
		<g>
			<g>
				<defs>
					<polygon id="SVGID_97_" points="172.3,192 221.7,220.5 221.8,161.7 172.5,133.2 					"/>
				</defs>
				<clipPath id="SVGID_98_">
					<use xlink:href="#SVGID_97_"  style="overflow:visible;"/>
				</clipPath>
				<g id="Group_5907" class="st64">
					<path id="Path_2196" d="M170.9,133.9c0,0,3.1,60.4,41.5,82.7L170.1,192L170.9,133.9z"/>
				</g>
			</g>
		</g>
	</g>
	<g id="Group_5910" transform="translate(252.742 112.448)" class="st1">
		<g>
			<g>
				<defs>
					<path id="SVGID_99_" d="M139.8,223c0,72.4,58.7,131.1,131.1,131.1S402,295.4,402,223S343.3,91.9,270.9,91.9l0,0
						C198.5,91.9,139.8,150.6,139.8,223"/>
				</defs>
				<clipPath id="SVGID_100_">
					<use xlink:href="#SVGID_99_"  style="overflow:visible;"/>
				</clipPath>
				<g id="Group_5909" class="st65">
					<path id="Path_2198" class="st66" d="M231.4,208l49.3,28.5l-0.2,58.8"/>
					<path id="Path_2199" class="st66" d="M280.6,295.3l0.2-58.8l49-28.5"/>
					<path id="Path_2200" class="st3" d="M486.2,276c0,38.9-31.5,70.4-70.4,70.4s-70.4-31.5-70.4-70.4s31.5-70.4,70.4-70.4l0,0
						C454.7,205.7,486.2,237.2,486.2,276"/>
					<path id="Path_2201" class="st4" d="M270.9,94.2c71.1,0,128.8,57.7,128.8,128.8S342,351.8,270.9,351.8S142.1,294.1,142.1,223
						c0-34.2,13.6-66.9,37.7-91.1S236.7,94.1,270.9,94.2 M270.9,91.9c-72.4,0-131.1,58.7-131.1,131.1s58.7,131.1,131.1,131.1
						S402,295.4,402,223S343.3,91.9,270.9,91.9L270.9,91.9"/>
				</g>
			</g>
		</g>
	</g>
	<g id="Group_5927" class="st1">
		<g>
			<g>
				<defs>
					<rect id="SVGID_101_" x="0.3" y="29.8" width="739.8" height="540.9"/>
				</defs>
				<clipPath id="SVGID_102_">
					<use xlink:href="#SVGID_101_"  style="overflow:visible;"/>
				</clipPath>
				<g id="Group_5926" class="st67">
					<rect id="Rectangle_1719" x="642.4" y="359.9" class="st7" width="40.5" height="67.2"/>
					<line id="Line_259" class="st21" x1="628.3" y1="388.1" x2="708.4" y2="388.1"/>
					<line id="Line_260" class="st21" x1="628.3" y1="370.9" x2="708.4" y2="370.9"/>
					<line id="Line_261" class="st21" x1="628.3" y1="405.3" x2="708.4" y2="405.3"/>
					<rect id="Rectangle_1720" x="703.2" y="365.7" class="st10" width="10.3" height="10.3"/>
					<path id="Path_2203" class="st10" d="M708.4,410.5L708.4,410.5c-2.9,0-5.2-2.3-5.2-5.2c0-2.9,2.3-5.2,5.2-5.2s5.2,2.3,5.2,5.2
						l0,0C713.6,408.2,711.3,410.5,708.4,410.5"/>
					<path id="Path_2204" class="st10" d="M703.2,393.3V383l10.3,5.2L703.2,393.3z"/>
					<rect id="Rectangle_1721" x="624" y="400.1" class="st10" width="10.3" height="10.3"/>
					<path id="Path_2205" class="st10" d="M629.2,393.3L629.2,393.3c-2.9,0-5.2-2.3-5.2-5.2c0-2.9,2.3-5.2,5.2-5.2s5.2,2.3,5.2,5.2
						C634.3,390.9,632,393.3,629.2,393.3L629.2,393.3"/>
					<path id="Path_2206" class="st10" d="M634.3,365.7V376l-10.3-5.2L634.3,365.7z"/>
					<line id="Line_262" class="st68" x1="642.8" y1="388.1" x2="683.6" y2="388.1"/>
					<line id="Line_263" class="st68" x1="642.8" y1="370.9" x2="683.6" y2="370.9"/>
					<line id="Line_264" class="st68" x1="642.8" y1="405.3" x2="683.6" y2="405.3"/>
					<rect id="Rectangle_1722" x="649.7" y="355.6" class="st4" width="38.2" height="64.9"/>
					<path id="Path_2207" class="st3" d="M686.7,419.4h-35.9v-62.6h35.9V419.4z M689,354.5h-40.5v67.2H689V354.5z"/>
					<path id="Path_2208" class="st69" d="M656.6,362.7h25.2v50.7"/>
					<g id="Group_5925" transform="translate(352.669 107.627)">
						<g id="Group_5924">
							<g>
								<g>
									<defs>
										<rect id="SVGID_103_" x="195" y="89.2" width="69.6" height="77.9"/>
									</defs>
									<clipPath id="SVGID_104_">
										<use xlink:href="#SVGID_103_"  style="overflow:visible;"/>
									</clipPath>
									<g id="Group_5923" class="st70">
										<g id="Group_5922">
											<g id="Group_5921">
												<g>
													<g>
														<defs>
															<rect id="SVGID_105_" x="195" y="89.2" width="69.6" height="77.9"/>
														</defs>
														<clipPath id="SVGID_106_">
															<use xlink:href="#SVGID_105_"  style="overflow:visible;"/>
														</clipPath>
														<g id="Group_5920" class="st71">
															<g id="Group_5913">
																<g id="Group_5912">
																	<g>
																		<g>
																			<defs>
																				<rect id="SVGID_107_" x="195" y="89.2" width="69.6" height="40.3"/>
																			</defs>
																			<clipPath id="SVGID_108_">
																				<use xlink:href="#SVGID_107_"  style="overflow:visible;"/>
																			</clipPath>
																			<g id="Group_5911" class="st72">
																				<path id="Path_2209" class="st4" d="M199.6,109.4l30.1-17.5l30.3,17.5l-30.1,17.5L199.6,109.4z"/>
																				<path id="Path_2210" class="st3" d="M229.7,93.2l28,16.2l-27.8,16.2l-28-16.2L229.7,93.2z M229.7,90.5
																					l-32.4,18.8l32.6,18.8l32.4-18.8L229.7,90.5z"/>
																			</g>
																		</g>
																	</g>
																</g>
															</g>
															<g id="Group_5916" transform="translate(22.432 12.991)">
																<g id="Group_5915">
																	<g>
																		<g>
																			<defs>
																				<rect id="SVGID_109_" x="207.4" y="96.4" width="32.5" height="57.7"/>
																			</defs>
																			<clipPath id="SVGID_110_">
																				<use xlink:href="#SVGID_109_"  style="overflow:visible;"/>
																			</clipPath>
																			<g id="Group_5914" class="st73">
																				<path id="Path_2211" class="st3" d="M239.9,96.4l-0.1,38.9l-32.4,18.8l0.1-38.9L239.9,96.4z"/>
																			</g>
																		</g>
																	</g>
																</g>
															</g>
															<g id="Group_5919" transform="translate(1.418 12.986)">
																<g id="Group_5918">
																	<g>
																		<g>
																			<defs>
																				<rect id="SVGID_111_" x="195.8" y="96.4" width="32.7" height="57.7"/>
																			</defs>
																			<clipPath id="SVGID_112_">
																				<use xlink:href="#SVGID_111_"  style="overflow:visible;"/>
																			</clipPath>
																			<g id="Group_5917" class="st74">
																				<path id="Path_2212" class="st7" d="M228.5,115.2l-0.1,38.9l-32.6-18.8l0.1-38.9L228.5,115.2z"/>
																			</g>
																		</g>
																	</g>
																</g>
															</g>
														</g>
													</g>
												</g>
											</g>
										</g>
									</g>
								</g>
							</g>
						</g>
					</g>
				</g>
			</g>
		</g>
	</g>
</g>
<g id="Layer_2_1_">
	<g id="Group_5521">
		<path id="Path_1892" class="st10" d="M165.7,28.1c-3.7,0-7.5,0.6-11,1.7C141.7,5.3,111.4-4,87.1,9c-10.7,5.7-18.9,15-23.2,26.2
			C50.6,35.7,38.8,43.8,33.6,56C20.8,52.7,7.8,60.5,4.5,73.3s4.4,25.8,17.2,29.1c1.9,0.5,3.9,0.8,6,0.8h138
			c20.7,0,37.5-16.8,37.5-37.5C203.2,44.9,186.4,28.1,165.7,28.1L165.7,28.1z"/>
	</g>
	<g id="Group_5522" transform="translate(16.532 3.501)">
		<path id="Path_1893" class="st75" d="M80.8,219.2c-1.7-18.1-5.1-36-5.7-54.2c-0.4-21.8,3-43.6,10-64.2
			c14.4-42.6,47.4-72.6,90.4-85c53.6-15.4,110.5-16.4,161.2,9c43.1,21.7,80.2,58,118,87.4c34,26.4,67.5,53.4,100.7,80.9
			c40.3,33.5,77.6,71.4,83,126.2c3.3,33.4-5.2,68.6-22.4,97.3c-20.1,33.3-50.9,49.1-88.5,56.4c-50.2,9.8-101.7,5.3-152.4,8.4
			c-49.7,3-98.8,23.1-134.8,57.7c-45,43.3-129.8,63.2-181.9,21.8C28,536.6,15.6,495.6,12.3,458.1c-3.2-35.7,3-75,21.8-105.9
			c19.9-32.8,43.4-62.1,47.2-101.9C82.1,240,81.9,229.5,80.8,219.2z"/>
	</g>
	<g id="Group_5523" transform="translate(16.532 3.501)">
		<path id="Path_1894" class="st75" d="M638.4,319.2c-5.4-54.7-42.7-92.7-83-126.2c-33.1-27.5-66.7-54.5-100.7-80.9
			c-37.8-29.4-74.9-65.7-118-87.4c-50.6-25.5-107.6-24.5-161.2-9c-43.1,12.4-76,42.5-90.4,85c-7.1,20.7-10.5,42.4-10,64.2
			c0.6,18.1,4,36.1,5.7,54.2c1.1,10.4,1.2,20.8,0.4,31.2c-0.3,3-0.7,5.9-1.2,8.8c-4.3,24.5-15.9,45.2-28.7,65.7
			c-5.7,9.1-11.6,18.1-17.3,27.4c-18.7,30.9-24.9,70.2-21.8,105.9c3.3,37.4,15.7,78.5,46.2,102.7c52.1,41.3,156.3,42.9,201.4-0.4
			c36-34.6,65.5-76.1,115.2-79.1c50.7-3,102.2,1.4,152.4-8.4c37.7-7.3,68.5-23.1,88.5-56.4C633.2,387.8,641.6,352.6,638.4,319.2z"/>
	</g>
	<g id="Group_5526" transform="translate(42.772 175.807)">
		<g id="Group_5524" transform="translate(0.859 0.859)">
			<path id="Path_1895" class="st4" d="M144.6,86H25.9c-0.9,0-1.7,0.8-1.7,1.7l0,0v63l0,0v1c0.1-0.1,0.1-0.2,0.2-0.3
				c0.3,0.6,0.9,0.9,1.5,0.9h118.7c0.9,0,1.7-0.8,1.7-1.7l0,0v-63C146.3,86.8,145.5,86,144.6,86L144.6,86z"/>
		</g>
		<g id="Group_5525" transform="translate(0)">
			<path id="Path_1896" class="st75" d="M23.8,156.9V88.5c0-1.6,1.3-2.9,2.9-2.9h118.7c1.6,0,2.9,1.3,2.9,2.9v63
				c0,1.6-1.3,2.9-2.9,2.9H26.7c-0.4,0-0.8-0.1-1.2-0.3L23.8,156.9z M26.3,151.6L26.3,151.6c0.1,0.2,0.3,0.3,0.4,0.3h118.7
				c0.2,0,0.4-0.2,0.4-0.4v-63c0-0.2-0.2-0.4-0.4-0.4H26.7c-0.2,0-0.3,0.1-0.4,0.3c0,0.1,0,0.1,0,0.2
				C26.3,88.6,26.3,151.6,26.3,151.6z"/>
		</g>
	</g>
	<g id="Group_5527" transform="translate(78.193 199.132)">
		<path id="Path_1897" class="st75" d="M132.2,99.1l-2.5,43.4H45.1C62.1,116.6,94.7,99.1,132.2,99.1 M134.9,96.5h-2.7
			c-37,0-71.2,17.1-89.2,44.5l-2.6,3.9h91.7l0.1-2.4l2.5-43.4L134.9,96.5L134.9,96.5z"/>
	</g>
	<g id="Group_5530" transform="translate(16.532 3.501)">
		<g>
			<g>
				<defs>
					<path id="SVGID_113_" d="M638.4,319.2c-5.4-54.7-42.7-92.7-83-126.2c-33.1-27.5-66.7-54.5-100.7-80.9
						c-37.8-29.4-74.9-65.7-118-87.4c-50.6-25.5-107.6-24.5-161.2-9c-43.1,12.4-76,42.5-90.4,85c-7.1,20.7-10.5,42.4-10,64.2
						c0.6,18.1,4,36.1,5.7,54.2c1.1,10.4,1.2,20.8,0.4,31.2c-0.3,3-0.7,5.9-1.2,8.8c-4.3,24.5-15.9,45.2-28.7,65.7
						c-5.7,9.1-11.6,18.1-17.3,27.4c-18.7,30.9-24.9,70.2-21.8,105.9c3.3,37.4,15.7,78.5,46.2,102.7c52.1,41.3,156.3,42.9,201.4-0.4
						c36-34.6,65.5-76.1,115.2-79.1c50.7-3,102.2,1.4,152.4-8.4c37.7-7.3,68.5-23.1,88.5-56.4C633.2,387.8,641.6,352.6,638.4,319.2z
						"/>
				</defs>
				<clipPath id="SVGID_114_">
					<use xlink:href="#SVGID_113_"  style="overflow:visible;"/>
				</clipPath>
				<g id="Group_5529" transform="translate(0)" class="st76">
					<g id="Group_5528" transform="translate(-10.016 197.349)">
						<path id="Path_1898" class="st4" d="M27.5,195c5.3-1.9,11.1-1.6,16.2,0.9c9.1-25.8,36.6-40.3,63.1-33.1
							c10.1-37.4,49.7-65.4,97.1-65.4c11.8,0,23.5,1.7,34.7,5.2l64.2,101c0,0,4.4,4.1,3.6,16.9c0,0,28,0.8,24.8,40.8H196.4v0.1H33.8
							c-3.9,0-7.7-0.6-11.3-1.9l-15.7-1.9l4.3-65.7L27.5,195z"/>
					</g>
				</g>
			</g>
		</g>
	</g>
	<g id="Group_5533" transform="translate(406.05 133.035)">
		<g id="Group_5531" transform="translate(0.859 0.859)">
			<path id="Path_1900" class="st4" d="M247.3,65.9h-51c-0.9,0-1.7,0.8-1.7,1.7v63.1l0,0c0,0.9,0.8,1.7,1.7,1.7l0,0h51
				c0.9,0,1.7-0.8,1.7-1.7l0,0V67.6C248.9,66.7,248.2,65.9,247.3,65.9L247.3,65.9z"/>
		</g>
		<g id="Group_5532">
			<path id="Path_1901" class="st75" d="M248.1,134.6h-51c-1.6,0-2.9-1.3-2.9-2.9V68.5c0-1.6,1.3-2.9,2.9-2.9h51
				c1.6,0,2.9,1.3,2.9,2.9v63.1C251,133.3,249.7,134.6,248.1,134.6z M197.1,68.1c-0.2,0-0.4,0.2-0.4,0.4v63.1c0,0.2,0.2,0.4,0.4,0.4
				h51c0.2,0,0.4-0.2,0.4-0.4V68.5c0-0.2-0.2-0.4-0.4-0.4H197.1z"/>
		</g>
	</g>
	<g id="Group_5536" transform="translate(195.318 6.189)">
		<g id="Group_5534" transform="translate(0.859 0.859)">
			<path id="Path_1902" class="st4" d="M142.1,226.9c-25.6,0-46.3-20.7-46.4-46.3c0-24.5,19-44.8,43.4-46.3
				c-1-5.6-1.6-11.4-1.6-17.1C137.6,56,196.3,6.4,268.7,6.4c62.3,0,114.5,36.8,127.8,86c34.8-9.4,71,9.6,83,43.6
				c24.6-7.2,50.3,6.9,57.5,31.5s-6.9,50.3-31.5,57.5c-4.2,1.2-8.6,1.9-13,1.9H142.1z"/>
		</g>
		<g id="Group_5535">
			<path id="Path_1903" class="st75" d="M493.4,229H142.9c-26.3,0-47.6-21.3-47.6-47.6c0-24.6,18.7-45.1,43.1-47.4
				c-0.9-5.3-1.3-10.6-1.3-16c0-61.8,59.4-112,132.4-112c30.1,0,59.6,8.8,83,24.8c22.7,15.5,38.9,37.1,45.7,61
				c34.7-8.7,70.4,10,82.9,43.6c25.4-6.7,51.5,8.4,58.2,33.8s-8.4,51.5-33.8,58.2C501.5,228.5,497.5,229,493.4,229L493.4,229z
				 M269.5,8.6c-71.6,0-129.9,49.1-129.9,109.5c0,5.7,0.5,11.3,1.5,16.9l0.3,1.4l-1.4,0.1c-24.8,1.6-43.7,23-42.1,47.8
				c1.5,23.7,21.2,42.2,45,42.2h350.4c24.9,0,45.1-20.1,45.2-45c0-24.9-20.1-45.1-45-45.2c-4.3,0-8.6,0.6-12.8,1.8l-1.1,0.3
				l-0.4-1.1c-11.8-33.4-47.3-52-81.5-42.8l-1.2,0.3l-0.3-1.2c-6.4-23.8-22.4-45.4-45-60.8C328.1,17.2,299.2,8.6,269.5,8.6z"/>
		</g>
	</g>
	<g id="Group_5539" transform="translate(88.86 121.826)">
		<g id="Group_5537" transform="translate(0.859 0.859)">
			<path id="Rectangle_1705" class="st4" d="M48.8,60.7h48.5c1.6,0,2.9,1.3,2.9,2.9v60.6c0,1.6-1.3,2.9-2.9,2.9H48.8
				c-1.6,0-2.9-1.3-2.9-2.9V63.6C45.8,62,47.1,60.7,48.8,60.7z"/>
		</g>
		<g id="Group_5538" transform="translate(0)">
			<path id="Path_1904" class="st75" d="M99.4,129.3h-51c-1.6,0-2.9-1.3-2.9-2.9V63.2c0-1.6,1.3-2.9,2.9-2.9h51
				c1.6,0,2.9,1.3,2.9,2.9v63.1C102.3,128,101,129.3,99.4,129.3z M48.4,62.8c-0.2,0-0.4,0.2-0.4,0.4l0,0v63.1c0,0.2,0.2,0.4,0.4,0.4
				l0,0h51c0.2,0,0.4-0.2,0.4-0.4V63.2c0-0.2-0.2-0.4-0.4-0.4H48.4z"/>
		</g>
	</g>
	<g id="Group_5542" transform="translate(144.177 85.204)">
		<g id="Group_5540" transform="translate(0.858 0.859)">
			<path id="Path_1905" d="M368.5,319.7H71.8V43.5h296.8L368.5,319.7L368.5,319.7z"/>
		</g>
		<g id="Group_5541">
			<path id="Path_1906" d="M369.4,321.8H72.6c-0.7,0-1.3-0.6-1.3-1.3l0,0V44.4c0-0.7,0.6-1.3,1.3-1.3l0,0h296.8
				c0.7,0,1.3,0.6,1.3,1.3l0,0v276.2C370.7,321.2,370.1,321.8,369.4,321.8L369.4,321.8z M73.9,319.3h294.3V45.6H73.9V319.3z"/>
		</g>
	</g>
	<g id="Group_5552" transform="translate(366.625 95.579)">
		<g id="Group_5550" transform="translate(7.506 0.888)">
			<g id="Group_5543">
				<path id="Path_1907" class="st10" d="M266,50.9h-85.6c-0.7,0-1.3-0.6-1.3-1.3s0.6-1.3,1.3-1.3l0,0H266c0.7,0,1.3,0.6,1.3,1.3
					C267.3,50.3,266.7,50.9,266,50.9z"/>
			</g>
			<g id="Group_5544" transform="translate(32.412 11.8)">
				<path id="Path_1908" class="st10" d="M233.6,56.4h-38c-0.7,0-1.3-0.6-1.3-1.3s0.6-1.3,1.3-1.3h38c0.7,0,1.3,0.6,1.3,1.3
					C234.9,55.9,234.3,56.4,233.6,56.4z"/>
			</g>
			<g id="Group_5545" transform="translate(0 11.8)">
				<path id="Path_1909" class="st10" d="M218.6,56.4h-38.2c-0.7,0-1.3-0.6-1.3-1.3s0.6-1.3,1.3-1.3l0,0h38.2c0.7,0,1.3,0.6,1.3,1.3
					C219.9,55.9,219.3,56.4,218.6,56.4L218.6,56.4L218.6,56.4z"/>
			</g>
			<g id="Group_5546" transform="translate(47.564 24.229)">
				<path id="Path_1910" class="st10" d="M218.5,62.3h-15.7c-0.7,0-1.3-0.6-1.3-1.3s0.6-1.3,1.3-1.3h15.7c0.7,0,1.3,0.6,1.3,1.3
					S219.2,62.3,218.5,62.3L218.5,62.3z"/>
			</g>
			<g id="Group_5547" transform="translate(0 24.229)">
				<path id="Path_1911" class="st10" d="M240.9,62.3h-60.4c-0.7,0-1.3-0.6-1.3-1.3s0.6-1.3,1.3-1.3l0,0h60.4c0.7,0,1.3,0.6,1.3,1.3
					S241.6,62.3,240.9,62.3L240.9,62.3z"/>
			</g>
			<g id="Group_5548" transform="translate(15.243 36.343)">
				<path id="Path_1912" class="st10" d="M250.8,68h-63.2c-0.7,0-1.3-0.6-1.3-1.3c0-0.7,0.6-1.3,1.3-1.3l0,0h63.2
					c0.7,0,1.3,0.6,1.3,1.3S251.5,68,250.8,68L250.8,68z"/>
			</g>
			<g id="Group_5549" transform="translate(0 36.343)">
				<path id="Path_1913" class="st10" d="M193.3,68h-12.8c-0.7,0-1.3-0.6-1.3-1.3c0-0.7,0.6-1.3,1.3-1.3l0,0h12.8
					c0.7,0,1.3,0.6,1.3,1.3C194.5,67.4,194,68,193.3,68z"/>
			</g>
		</g>
		<g id="Group_5551" transform="translate(0 0)">
			<path id="Path_1914" class="st10" d="M176.9,106.4c-0.7,0-1.3-0.6-1.3-1.3l0,0V49.2c0-0.7,0.6-1.3,1.3-1.3s1.3,0.6,1.3,1.3l0,0
				v55.9C178.2,105.9,177.6,106.4,176.9,106.4L176.9,106.4z"/>
		</g>
	</g>
	<g id="Group_5555" transform="translate(148.162 81.218)">
		<g id="Group_5553" transform="translate(0.859 0.859)">
			<path id="Path_1915" class="st4" d="M370.4,317.8H73.6V41.6h296.8V317.8z"/>
		</g>
		<g id="Group_5554">
			<path id="Path_1916" class="st10" d="M371.3,319.9H74.5c-0.7,0-1.3-0.6-1.3-1.3l0,0V42.5c0-0.7,0.6-1.3,1.3-1.3l0,0h296.8
				c0.7,0,1.3,0.6,1.3,1.3l0,0v276.2C372.5,319.4,372,319.9,371.3,319.9L371.3,319.9z M75.7,317.4H370V43.8H75.7V317.4z"/>
		</g>
	</g>
	<g id="Group_5558" transform="translate(148.162 81.218)">
		<g id="Group_5556" transform="translate(0.859 0.859)">
			<rect id="Rectangle_1706" x="73.6" y="41.6" class="st10" width="296.8" height="43.4"/>
		</g>
		<g id="Group_5557">
			<path id="Path_1917" class="st10" d="M372.5,87.2H73.2v-46h299.3V87.2z M75.7,84.7H370V43.8H75.7V84.7z"/>
		</g>
	</g>
	<g id="Group_5561" transform="translate(316.42 92.775)">
		<g id="Group_5559" transform="translate(0 0)">
			<circle id="Ellipse_238" class="st4" cx="158.6" cy="53.1" r="6.5"/>
		</g>
		<g id="Group_5560" transform="translate(16.362 0)">
			<circle id="Ellipse_239" class="st4" cx="166.3" cy="53.1" r="6.5"/>
		</g>
	</g>
	<g id="Group_5564" transform="translate(366.329 37.704)">
		<g id="Group_5562" transform="translate(0.859 0.859)">
			<path id="Rectangle_1707" class="st4" d="M178.9,21.2h48.5c1.6,0,2.9,1.3,2.9,2.9v60.6c0,1.6-1.3,2.9-2.9,2.9h-48.5
				c-1.6,0-2.9-1.3-2.9-2.9V24.2C175.9,22.6,177.2,21.2,178.9,21.2z"/>
		</g>
		<g id="Group_5563">
			<path id="Path_1918" class="st75" d="M229.5,89.9h-51c-1.6,0-2.9-1.3-2.9-2.9V23.8c0-1.6,1.3-2.9,2.9-2.9h51
				c1.6,0,2.9,1.3,2.9,2.9v63.1C232.4,88.5,231.1,89.9,229.5,89.9z M178.5,23.4c-0.2,0-0.4,0.2-0.4,0.4l0,0v63.1
				c0,0.2,0.2,0.4,0.4,0.4l0,0h51c0.2,0,0.4-0.2,0.4-0.4l0,0V23.8c0-0.2-0.2-0.4-0.4-0.4l0,0H178.5z"/>
		</g>
	</g>
	<g id="Group_5567" transform="translate(148.162 184.947)">
		<g id="Group_5565" transform="translate(0.859 0.859)">
			<path id="Path_1919" class="st4" d="M188.9,214.1H73.6V90.3"/>
		</g>
		<g id="Group_5566" transform="translate(0 0)">
			<path id="Path_1920" class="st10" d="M189.8,216.2H74.5c-0.7,0-1.3-0.6-1.3-1.3l0,0V91.1c0-0.7,0.6-1.3,1.3-1.3
				c0.7,0,1.3,0.6,1.3,1.3l0,0v122.5h114c0.7,0,1.3,0.6,1.3,1.3C191,215.6,190.5,216.2,189.8,216.2z"/>
		</g>
	</g>
	<g id="Group_5568" transform="translate(20.589 267.31)">
		<path id="Path_1921" class="st77" d="M13.4,128.5"/>
	</g>
	<g id="Group_5569" transform="translate(136.957 210.331)">
		<path id="Path_1922" class="st77" d="M68,101.8"/>
	</g>
	<g id="Group_5579" transform="translate(140.697 25.016)">
		<g id="Group_5577" transform="translate(7.506 0.888)">
			<g id="Group_5570">
				<path id="Path_1923" class="st10" d="M160.1,17.8H74.5c-0.7,0-1.3-0.6-1.3-1.3c0-0.7,0.6-1.3,1.3-1.3h85.6
					c0.7,0,1.3,0.6,1.3,1.3C161.4,17.3,160.8,17.8,160.1,17.8z"/>
			</g>
			<g id="Group_5571" transform="translate(32.412 11.8)">
				<path id="Path_1924" class="st10" d="M127.7,23.4h-38c-0.7,0-1.3-0.6-1.3-1.3c0-0.7,0.6-1.3,1.3-1.3l0,0h38
					c0.7,0,1.3,0.6,1.3,1.3C128.9,22.8,128.4,23.4,127.7,23.4z"/>
			</g>
			<g id="Group_5572" transform="translate(0 11.8)">
				<path id="Path_1925" class="st10" d="M112.7,23.4H74.5c-0.7,0-1.3-0.6-1.3-1.3c0-0.7,0.6-1.3,1.3-1.3h38.2
					c0.7,0,1.3,0.6,1.3,1.3S113.4,23.4,112.7,23.4L112.7,23.4z"/>
			</g>
			<g id="Group_5573" transform="translate(47.564 24.228)">
				<path id="Path_1926" class="st10" d="M112.5,29.2H96.8c-0.7,0-1.3-0.6-1.3-1.3c0-0.7,0.6-1.3,1.3-1.3l0,0h15.7
					c0.7,0,1.3,0.6,1.3,1.3S113.2,29.2,112.5,29.2L112.5,29.2z"/>
			</g>
			<g id="Group_5574" transform="translate(0 24.228)">
				<path id="Path_1927" class="st10" d="M134.9,29.2H74.5c-0.7,0-1.3-0.6-1.3-1.3c0-0.7,0.6-1.3,1.3-1.3h60.4
					c0.7,0,1.3,0.6,1.3,1.3S135.6,29.2,134.9,29.2L134.9,29.2z"/>
			</g>
			<g id="Group_5575" transform="translate(15.243 36.343)">
				<path id="Path_1928" class="st10" d="M144.9,34.9H81.7c-0.7,0-1.3-0.6-1.3-1.3s0.6-1.3,1.3-1.3l0,0h63.2c0.7,0,1.3,0.6,1.3,1.3
					C146.1,34.3,145.6,34.9,144.9,34.9L144.9,34.9z"/>
			</g>
			<g id="Group_5576" transform="translate(0 36.343)">
				<path id="Path_1929" class="st10" d="M87.3,34.9H74.5c-0.7,0-1.3-0.6-1.3-1.3s0.6-1.3,1.3-1.3h12.8c0.7,0,1.3,0.6,1.3,1.3
					C88.6,34.3,88,34.9,87.3,34.9L87.3,34.9z"/>
			</g>
		</g>
		<g id="Group_5578">
			<path id="Path_1930" class="st10" d="M71,73.4c-0.7,0-1.3-0.6-1.3-1.3l0,0v-56c0-0.7,0.6-1.3,1.3-1.3c0.7,0,1.3,0.6,1.3,1.3l0,0
				V72C72.2,72.8,71.7,73.4,71,73.4z"/>
		</g>
	</g>
	<g id="Group_5580" transform="translate(148.149 124.903)">
		<path id="Path_1931" class="st10" d="M73.2,63.8v194.7c0,1.1,0.9,2.1,2.1,2.1l0,0h129.1c1.1,0,2.1-0.9,2.1-2.1l0,0V63.8
			c0-1.1-0.9-2.1-2.1-2.1l0,0H75.3C74.1,61.7,73.2,62.6,73.2,63.8L73.2,63.8z"/>
	</g>
	<g id="Group_5583" transform="translate(136.957 121.902)">
		<g id="Group_5581" transform="translate(0.859 0.859)">
			<rect id="Rectangle_1708" x="68.4" y="60.7" class="st4" width="156.6" height="196.4"/>
		</g>
		<g id="Group_5582" transform="translate(0 0)">
			<path id="Path_1932" class="st10" d="M225.8,259.2H69.2c-0.7,0-1.3-0.6-1.3-1.3l0,0V61.6c0-0.7,0.6-1.3,1.3-1.3l0,0h156.6
				c0.7,0,1.3,0.6,1.3,1.3l0,0V258C227.1,258.6,226.5,259.2,225.8,259.2L225.8,259.2z M70.5,256.7h154.1V62.8H70.5V256.7z"/>
		</g>
	</g>
	<g id="Group_5584" transform="translate(263.028 124.998)">
		<path id="Rectangle_1709" class="st10" d="M129.3,61.8h101.4c1.2,0,2.2,1,2.2,2.2v133c0,1.2-1,2.2-2.2,2.2H129.3
			c-1.2,0-2.2-1-2.2-2.2V64C127.1,62.8,128.1,61.8,129.3,61.8z"/>
	</g>
	<g id="Group_5585" transform="translate(262.892 226.846)">
		<path id="Path_1933" class="st10" d="M230.9,109.5H128.5c-0.8-0.1-1.4,0.5-1.5,1.3V158c0.1,0.8,0.7,1.3,1.5,1.3h102.4
			c0.8,0.1,1.4-0.5,1.5-1.3v-47.2C232.4,110,231.7,109.5,230.9,109.5z"/>
	</g>
	<g id="Group_5588" transform="translate(266.123 121.902)">
		<g id="Group_5586" transform="translate(0.859 0.859)">
			<rect id="Rectangle_1710" x="128.9" y="60.7" class="st4" width="103.4" height="134.9"/>
		</g>
		<g id="Group_5587" transform="translate(0 0)">
			<path id="Path_1934" class="st10" d="M233.2,197.7H129.8c-0.7,0-1.3-0.6-1.3-1.3l0,0V61.6c0-0.7,0.6-1.3,1.3-1.3l0,0h103.4
				c0.7,0,1.3,0.6,1.3,1.3l0,0v134.9C234.5,197.2,233.9,197.7,233.2,197.7L233.2,197.7z M131.1,195.2H232V62.8H131.1V195.2z"/>
		</g>
	</g>
	<g id="Group_5591" transform="translate(266.111 224.153)">
		<g id="Group_5589" transform="translate(0.94 0.941)">
			<rect id="Rectangle_1711" x="129" y="108.7" class="st4" width="102.4" height="47.2"/>
		</g>
		<g id="Group_5590">
			<path id="Path_1935" class="st10" d="M232.3,158.2H129.9c-0.8,0-1.4-0.6-1.4-1.4v-47.2c0-0.8,0.6-1.4,1.4-1.4h102.4
				c0.8,0,1.4,0.6,1.4,1.4v47.2C233.7,157.6,233.1,158.2,232.3,158.2L232.3,158.2z M131.3,155.5h99.6V111h-99.6L131.3,155.5
				L131.3,155.5z"/>
		</g>
	</g>
	<g id="Group_5592" transform="translate(262.892 239.028)">
		<path id="Path_1936" class="st10" d="M131.7,134.7v-18.2c0-0.5-0.3-0.9-0.7-1.1c-0.5-0.2-1-0.2-1.5-0.1c-0.9,0.4-1.7,0.9-2.5,1.5
			v15.4C128,133.9,129.8,134.9,131.7,134.7z"/>
	</g>
	<g id="Group_5593" transform="translate(293.233 274.931)">
		<path id="Path_1937" class="st75" d="M142.5,165.2c-0.7,0-1.3-0.6-1.3-1.3c0-0.3,0.1-0.6,0.3-0.8c8.2-9.7,23.7-23.1,23.8-23.2
			c0,0,0.1-0.1,0.2-0.1l12-7.5c0.6-0.4,1.4-0.2,1.7,0.4c0.4,0.6,0.2,1.4-0.4,1.7l-11.9,7.4c-1.2,1-15.7,13.7-23.5,22.9
			C143.2,165,142.9,165.2,142.5,165.2z"/>
	</g>
	<g id="Group_5594" transform="translate(330.089 296.26)">
		<path id="Path_1938" class="st78" d="M196.1,242.1h138c13.2,0,23.9-10.7,23.9-24c0-13.2-10.7-23.9-24-23.9c-2,0-4,0.3-5.9,0.7
			c-5.1-12.2-16.9-20.4-30.2-20.8c-9.9-25.8-38.8-38.6-64.6-28.7c-11.3,4.3-20.6,12.6-26.2,23.2c-19.8-6.1-40.8,5-46.9,24.9
			c-6.1,19.8,5,40.8,24.9,46.9C188.6,241.5,192.3,242.1,196.1,242.1L196.1,242.1z"/>
	</g>
	<g id="Group_5595" transform="translate(318.064 296.507)">
		<path id="Path_1939" class="st10" d="M190.4,167.1c3.7,0,7.5,0.6,11,1.7c12.9-24.4,43.2-33.7,67.6-20.7
			c10.7,5.7,18.9,15,23.2,26.2c13.3,0.4,25.1,8.6,30.2,20.8c12.8-3.3,25.8,4.4,29.1,17.2c3.3,12.8-4.4,25.8-17.2,29.1
			c-1.9,0.5-3.9,0.8-6,0.8h-138c-20.7,0-37.5-16.8-37.5-37.5S169.7,167.1,190.4,167.1L190.4,167.1z"/>
	</g>
	<g id="Group_5596" transform="translate(154.439 88.161)">
		<path id="Path_1940" class="st4" d="M235.3,47H77.4c-0.7,0-1.3-0.6-1.3-1.3s0.6-1.3,1.3-1.3h157.9c0.7,0,1.3,0.6,1.3,1.3
			C236.6,46.5,236,47,235.3,47z"/>
	</g>
	<g id="Group_5645" transform="translate(184.993 139.989)">
		<g id="Group_5597" transform="translate(0.716 121.113)">
			<path id="Path_1941" class="st4" d="M90.8,302.5c21.8,27.6,59.8,20.7,59.8,20.7c68.1-20.7,158.1-11.7,158.1-11.7l-3.1-31.1
				c-0.4-17.9,4.3-49.2,6.1-57.1c0.8-3.8,2.3-9.5,3.9-15.5c2.6-10,5.6-21.4,6.7-28c3.1-17.5-5.9-34.9-22-42.5c1-3.8,1-7.8,0.2-11.7
				l-16.7,6.5c-44.3,11.2-100.4-4.4-100.4-4.4c-3.9,4.4-4.8,7.1-5,7.8c-3.4,1.1-6.7,2.4-9.9,4l-5,4.2c-6.7,5.8-12.3,12.9-16.4,20.8
				c-4.8,8.7-8.5,18-11.1,27.6c-6.1,23.7-15,50-15,50.3c-0.3,5.7-10.7,25.1-13.6,32.3L90.8,302.5"/>
		</g>
		<g id="Group_5598" transform="translate(59.296 88.542)">
			<path id="Path_1942" class="st79" d="M144.3,110.6c-2.5,2.6-5.4,5-9,5.4c-3.7,0.5-7.4,0.1-10.9-1.2c-1.8-0.8-5.7-2.3-6.1-4.4
				c1.2,5.6,5.1,8.7,10.9,10.3c2.7,0.7,5.4,1.3,8.1,1.6c1,0.1,10.4,0.5,10.4,0.4C147.1,118.9,145.3,114.1,144.3,110.6z"/>
		</g>
		<g id="Group_5609" transform="translate(3.422 110.367)">
			<g>
				<g>
					<defs>
						<path id="SVGID_115_" d="M168.5,145.6c-7.4,3.2-13.8,8.2-18.7,14.7c-4.3,5.9-7.9,12.2-10.8,18.9c0,0-9-7.9-19.3-18.2
							s-27.1-3.5-27.1-3.5l-0.5-36.4l61.3-0.5c2.2,8,6.4,15.3,12.2,21.2L168.5,145.6z"/>
					</defs>
					<clipPath id="SVGID_116_">
						<use xlink:href="#SVGID_115_"  style="overflow:visible;"/>
					</clipPath>
					<g id="Group_5608" class="st80">
						<g id="Group_5599" transform="translate(3.44 -5.588)">
							<path id="Path_1943" class="st81" d="M162.2,155.8c-2.4-2.8-6.7-7.8-8.7-10.4c-2.9-3.8-6.8-7.9-6.8-7.9l-0.1-0.1h-8.5
								c-2-1.3-3.8-2.7-5.5-4.4c-5.4-5.2-11.3-10-17.6-14.1c-1.6-1.1-2.5-1-3.1-0.7c-0.7,0.4-1.2,1.3-1.1,2.1
								c-0.2,3.5,3.1,10.8,11.1,15.8c0,0,0.7,0.5,1.6,1.3c-2.1,0-4.1,0-6.2,0c-2.2,0-4.3,0-6.5,0h-1.4c-1.8,0-3.6,0-5.5,0
								c-0.4,0-0.8,0-1.3,0c-1.6-0.1-3.2,0.1-4.8,0.6c-1.9,0.7-3.3,2.3-3.7,4.3c-0.1,1.2,0.3,2.3,1.3,3c-1.6,1-2.2,3.2-1.3,4.9
								c0.4,0.9,1.2,1.5,2.1,1.7c-0.8,0.4-1.4,1.1-1.8,2c-0.2,0.7,0,1.5,0.5,2c1.9,2.5,9.7,0.9,10.4,0.7c0.5,0,5.6,0.5,7,0.7
								c1.1,0.3,2.2,0.7,3.2,1.2c1.5,0.7,2.9,1.3,4.5,1.8c3.8,5.1,7.8,9.9,12.2,14.5c2.5,2.4,5.3,4.5,8.4,6"/>
						</g>
						<g id="Group_5600" transform="translate(14.645 6.947)">
							<path id="Path_1944" class="st79" d="M119.3,140.6c-0.4,0-0.7-0.2-0.9-0.5c-0.5-1.1-0.9-2.2-1.1-3.4
								c-0.4-2.2-1.1-4.3-2.1-6.3c-1.1-1.4-2.3-2.6-3.7-3.7c-0.3-0.3-0.6-0.5-0.9-0.7H100c-0.6,0-1.1-0.5-1.1-1.1s0.5-1.1,1.1-1.1
								h11c0.3,0,0.5,0.1,0.7,0.3c0.3,0.3,0.7,0.6,1.1,0.9c1.6,1.2,3.1,2.6,4.2,4.3c1.1,2.2,1.8,4.5,2.3,6.9c0.2,1,0.5,1.9,0.8,2.8
								c0.3,0.5,0.1,1.1-0.3,1.4C119.6,140.5,119.5,140.6,119.3,140.6z"/>
						</g>
						<g id="Group_5606" transform="translate(3.301 7.095)">
							<g id="Group_5601" transform="translate(17.893 15.193)">
								<path id="Path_1945" class="st79" d="M123.8,153.7c-0.2,0-0.3,0-0.5-0.1c-3.2-1.6-6.2-3.7-8.7-6.2
									c-4.4-4.6-8.5-9.5-12.3-14.7c-0.3-0.5-0.2-1.1,0.2-1.5c0.5-0.3,1.1-0.2,1.5,0.2l0,0c3.7,5.1,7.8,9.9,12.1,14.5
									c2.4,2.4,5.2,4.3,8.2,5.8c0.5,0.3,0.7,0.9,0.5,1.4C124.5,153.4,124.2,153.7,123.8,153.7L123.8,153.7z"/>
							</g>
							<g id="Group_5602" transform="translate(0.296)">
								<path id="Path_1946" class="st79" d="M96.4,133.6c-0.2,0-0.4-0.1-0.6-0.2c-1.4-0.8-2.2-2.4-1.9-4c0.4-2.3,2-4.1,4.2-4.9
									c1.6-0.5,3.3-0.7,5.1-0.6c0.4,0,0.8,0,1.2,0c1.8,0,3.7,0,5.5,0h1.5c2.2,0,4.3,0,6.5,0c2.4,0,4.7,0,7.1,0
									c0.6,0,1.1,0.5,1.1,1.1s-0.5,1.1-1.1,1.1l0,0c-2.4,0-4.7,0-7.1,0c-2.2,0-4.3,0-6.5,0h-1.5c-1.8,0-3.6,0-5.4,0
									c-1.9-0.1-3.8,0-5.6,0.5c-1.4,0.5-2.5,1.7-2.8,3.2c-0.1,0.7,0.2,1.3,0.7,1.7c1.9-0.5,8.5-2.2,11.8-2.7
									c0.7-0.1,1.3-0.2,2-0.3c2.3-0.6,4.7-0.7,7.1-0.6c0.7,0.1,1.7,0.3,2.8,0.5c0.6,0.1,0.9,0.7,0.8,1.2c-0.1,0.6-0.7,0.9-1.2,0.8
									l0,0c-1.1-0.2-2-0.4-2.7-0.5c-2.2-0.1-4.3,0.1-6.4,0.6c-0.6,0.1-1.3,0.2-2,0.3c-3.6,0.6-12,2.8-12.1,2.8
									C96.5,133.6,96.5,133.6,96.4,133.6z"/>
							</g>
							<g id="Group_5603" transform="translate(0 5.209)">
								<path id="Path_1947" class="st79" d="M98.4,134.8c-1.7,0.2-3.4-0.7-4.2-2.3c-1.2-2.2-0.3-4.9,1.9-6.1l0,0
									c0.5-0.3,1.1-0.1,1.4,0.4s0.1,1.1-0.4,1.4l0,0c-1.2,0.6-1.7,2.1-1.1,3.3l0,0c0.8,1.6,3.3,1.2,6.2,0.5c0.5-0.1,1-0.2,1.4-0.3
									c2.6-0.5,11-2.2,11-2.2c0.2,0,0.3,0,0.5,0c0,0,1.8,0.5,3.7,1.1c0.6,0.1,0.9,0.7,0.8,1.3s-0.7,0.9-1.3,0.8c0,0,0,0-0.1,0
									c-1.5-0.4-2.9-0.8-3.5-1c-1.4,0.3-8.4,1.7-10.7,2.2c-0.4,0.1-0.8,0.2-1.3,0.3C101.4,134.5,99.9,134.8,98.4,134.8z"/>
							</g>
							<g id="Group_5604" transform="translate(0.509 9.558)">
								<path id="Path_1948" class="st79" d="M120.5,138.7c-0.1,0-0.2,0-0.3,0c-1.6-0.5-3.2-1.1-4.7-1.9c-0.9-0.5-1.9-0.9-2.9-1.1
									c-1.4-0.1-6-0.6-6.9-0.7c-1.8,0.4-9,1.7-11.1-1c-0.6-0.7-0.9-1.7-0.6-2.7c0.6-1.3,1.7-2.4,3.1-2.9c0.6-0.2,1.1,0.1,1.3,0.7
									c0.2,0.5-0.1,1.1-0.6,1.3s-1.7,0.8-1.9,1.5c0,0.1-0.1,0.4,0.3,0.8c1,1.3,6,0.9,9.1,0.2c0.1,0,0.2,0,0.3,0
									c0,0,5.5,0.5,7.1,0.7c1.3,0.3,2.5,0.7,3.6,1.3c1.4,0.7,2.9,1.3,4.4,1.8c0.6,0.2,0.9,0.8,0.7,1.3
									C121.3,138.4,120.9,138.7,120.5,138.7L120.5,138.7z"/>
							</g>
							<g id="Group_5605" transform="translate(18.13 0.733)">
								<path id="Path_1949" class="st79" d="M102.9,147.2c-0.4,0-0.7-0.3-0.7-0.7c0-0.7,0-7.1,2.2-9.5c0-2.8,0.4-5.5,1.4-8.1
									c0.1-1.6,0.7-3.1,1.6-4.4c0.3-0.3,0.7-0.3,1,0s0.3,0.7,0,1c-0.7,1.1-1.1,2.4-1.2,3.7c0,0.1,0,0.1-0.1,0.2
									c-0.9,2.5-1.3,5.2-1.3,7.9c0,0.2-0.1,0.4-0.2,0.5c-1.7,1.5-2,6.8-1.9,8.7C103.6,146.9,103.2,147.2,102.9,147.2L102.9,147.2
									L102.9,147.2z"/>
							</g>
						</g>
						<g id="Group_5607" transform="translate(3.591 7.663)">
							<path id="Path_1950" d="M93.8,128.9c-0.1,0.9,0.1,1.8,0.6,2.6l46.2-0.7c-1.8-2.3-3.8-4.4-5.9-6.4l0,0l-37.1-0.2
								C95.6,125,94.2,126.8,93.8,128.9z"/>
						</g>
					</g>
				</g>
			</g>
		</g>
		<g id="Group_5611" transform="translate(25.897 131.603)">
			<g id="Group_5610">
				<path id="Path_1952" class="st82" d="M102.6,130.5"/>
			</g>
		</g>
		<g id="Group_5612" transform="translate(55.154 46.774)">
			<path id="Path_1953" d="M116.4,90.7c-0.1,1.9-0.1,3.9,0.1,5.8c0.4,2.7,2.1,4.9,4.6,6l1.8,0.8l2.2-5.2l-1.8-0.8
				c-0.7-0.3-1.1-0.9-1.2-1.6c-0.2-1.7-0.2-3.3-0.1-5"/>
		</g>
		<g id="Group_5613" transform="translate(54.355 29.392)">
			<path id="Path_1954" class="st81" d="M218.9,203.9c-0.7-2.3-1.3-4.7-1.7-7.2c0-1.7-0.8-17.5-0.8-18.1l-1.5-46
				c-1-15.5-6.9-27.6-17.4-36.1c-23.8-19.1-64.1-13-64.5-12.9c-0.1,0-0.2,0.1-0.2,0.2c-0.2,0.4-5.4,8.7-4.9,13.8
				c0.6,5.7,0.4,10.2-0.5,12.7l-0.2,0.5c-1.2,3.1-4.9,12.4-7.5,15c-2.6,2.6-4.8,5.1-2.8,7.7l4.5,5c0.1,0.1,0.2,0.1,0.3,0.1
				c0.3,4.4,1.4,20.8,1.9,24.3c0.1,0.5,0.1,1,0.2,1.5c0.5,4.1,1.2,10.2,7.3,13.3c6.8,3.4,17,3.4,21.4,3.4h0.1c0.4,5,0.5,10,0.2,15.1
				c-0.1,2.3-0.1,4.6-0.1,6.9v0.1c0,0.2,5.3,21,31.4,21c26,0,35-19.7,35.1-19.8C218.9,204.1,218.9,204,218.9,203.9z"/>
		</g>
		<g id="Group_5614" transform="translate(79.187 106.726)">
			<path id="Path_1955" class="st79" d="M191.6,122.4c0.4,3.1,1.2,6,2.5,8.8l-27-0.5c-11.9-1.8-39.4-1.6-39.4-1.6
				c0.3-3.7,0.4-9.5,0.4-9.5c3.3-0.4,6.6-0.6,9.9-0.7c17.6,0.3,34.9,4.9,52.5,2.3c0.7-0.1,1.3-0.2,2-0.3L191.6,122.4z"/>
		</g>
		<g id="Group_5615" transform="translate(58.267 123.387)">
			<path id="Path_1956" class="st75" d="M117.8,134.7c0,0,37.5,0.7,38.2,58.7s0,103.5,44.7,103.5s50.4,12.1,50.4,12.1
				s-4.9-47.2-0.1-71.3c4.8-24.1,12.9-56.1,12.9-56.1s5-27.2-8.1-36.8c-2.7-2-5.2-4.8-8-6.6c-6.9-4.4-14.2-8.3-21.7-11.6l-94.6,3.2
				L117.8,134.7z"/>
		</g>
		<g id="Group_5616" transform="translate(59.92 124.487)">
			<path id="Path_1957" d="M118.6,132.1c3.1,1.5,7.2,2,10.5,3.6c7.6,3.8,14.6,8.6,20.9,14.1c9.7,8.2,18.2,17.8,28,25.9
				c11.1,9.1,22.6,16.1,37.3,14.3c10.6-1.3,22.1-7.3,22.5-19.3c0.1-4.5-7.8-7.8-7.7-12.3c0.2-4.1,0.9-8.1,2.1-12.1
				c1.7-6.7,2.2-11.2,1.1-15.6c0,0-106.6-4.3-109.5-3.4C121.1,128.2,118.6,132.1,118.6,132.1z"/>
		</g>
		<g id="Group_5619" transform="translate(18.657 104.517)">
			<g id="Group_5617" transform="translate(0.477 0.476)">
				<path id="Path_1958" class="st81" d="M132.5,140.8c-4.4-1.9-8.4-4.6-11.8-7.9c-5.4-5.2-11.3-9.9-17.5-14.1
					c-6.3-4.3-4.9,8.9,7.3,16.7c2.4,1.7,4.4,3.8,6.1,6.3c1.8,3.3,3.7,8.9,4.5,10.3"/>
			</g>
			<g id="Group_5618">
				<path id="Path_1959" class="st81" d="M120.9,153c-0.6-1.2-1.1-2.4-1.6-3.6c-0.9-2.3-1.8-4.5-3-6.7c-1.6-2.3-3.6-4.4-5.8-6
					c-8.1-5.2-11.4-12.6-11.2-16.2c-0.1-1,0.4-1.9,1.3-2.4c0.6-0.3,1.7-0.4,3.4,0.8c6.3,4.1,12.2,8.9,17.7,14.2
					c3.4,3.2,7.3,5.9,11.6,7.7l-0.5,1.3c-4.5-1.9-8.5-4.7-12-8.1c-5.4-5.2-11.2-9.9-17.4-14c-0.9-0.6-1.6-0.8-2-0.7
					c-0.3,0.1-0.5,0.6-0.5,1.3c-0.2,3.2,3.1,10.1,10.6,14.9c2.5,1.8,4.6,4,6.3,6.5c1.2,2.2,2.2,4.5,3,6.8c0.4,1.2,0.9,2.3,1.5,3.4
					L120.9,153z"/>
			</g>
		</g>
		<g id="Group_5620" transform="translate(74.302 63.874)">
			<path id="Path_1960" class="st79" d="M132.3,106.5c-0.2,0-0.4,0-0.6,0c-2.6-0.4-4.9-2-6.2-4.2c-0.3-0.5-0.1-1.1,0.4-1.4
				s1.1-0.1,1.4,0.4l0,0c1,1.7,2.7,2.8,4.6,3.2c1.9,0.2,3.9-1,6-3.3c0.5-0.6,0.9-1.2,1.3-1.8c0.3-0.5,0.9-0.7,1.4-0.4
				c0.5,0.3,0.7,0.9,0.4,1.4c0,0,0,0,0,0.1c-0.4,0.7-0.9,1.4-1.5,2.1C137.1,105.1,134.7,106.5,132.3,106.5z"/>
		</g>
		<g id="Group_5621" transform="translate(63.86)">
			<path id="Path_1961" d="M188.9,212.3c-4.3,0.1-8.6-0.8-12.6-2.5c-15.5-6.9-25.1-33-26.8-45.5c0-0.1,0-0.2,0-0.3
				c-0.1-0.3-0.1-0.6,0.1-0.9c3.8-6.3,7.2-19.6,3.9-26c-1.1-2.2-3.2-3.6-5.7-3.7c-5.6-0.4-8.9,7.1-11.4,12.7c-0.5,1.2-1,2.3-1.5,3.2
				c-0.3,0.5-0.9,0.7-1.4,0.5c-0.1,0-0.1-0.1-0.2-0.1c-4.4-3.7-6.4-9.6-5.2-15.3c1.2-7.1-0.4-9.8-2.5-13.3c-0.6-1-1.2-2.1-1.9-3.3
				c-2.5-5-5.4-10.8-1.7-18.8c3-6.5,2.8-8.7,2.3-13l-0.1-1c-0.2-1.9,0.6-3.8,2-5.1c3.1-2.8,7.2-4.2,11.4-3.8l0.9,0.1
				c4.7,0.5,10.6,1.2,15-3.1c5.8-5.8,13.5-4.5,18.9-3.1c1.7,0.5,3.3,1,4.8,1.5c4.2,1.4,8.1,2.8,13.3,2.4c9.3-0.7,15.8,2.3,19.4,8.9
				c0.9,1.7,1.6,3.1,2.2,4.4c1.9,4.2,2.8,6.1,8.5,8.5c0.9,0.4,1.7,0.7,2.5,1c7,2.8,13.6,5.4,12.6,20.1c-0.2,2.3-0.3,4.2-0.4,5.9
				c-0.8,9.8-0.8,10.3,1.5,15.3c2.7,6,0.6,16-5.6,26.6c-1.3,2.1-2.8,4.7-4.5,7.4c-5.8,9.4-13.1,21.1-14.3,27.4
				c-0.4,1.8-0.6,3.6-0.7,5.4c0,1.1-0.7,2.1-1.7,2.6C203.3,210.5,196.2,212.1,188.9,212.3z M151.5,164v0.1c1.4,8.4,4.1,16.5,8,24.1
				c3.6,7,9.5,16.1,17.6,19.7c12.4,5.5,27.6-0.3,32-2.2c0.3-0.1,0.4-0.4,0.4-0.7c0.1-2,0.3-3.9,0.7-5.8c1.3-6.7,8.7-18.6,14.6-28.1
				c1.7-2.7,3.2-5.2,4.5-7.3c5.8-9.9,7.9-19.4,5.5-24.7c-2.5-5.5-2.4-6.5-1.7-16.4c0.1-1.7,0.3-3.6,0.4-5.9
				c0.9-13.1-4.5-15.3-11.3-18c-0.9-0.3-1.7-0.7-2.6-1.1c-6.4-2.7-7.6-5.3-9.6-9.6c-0.6-1.2-1.2-2.6-2.1-4.3
				c-3.1-5.8-9-8.5-17.4-7.8c-5.5,0.4-9.9-1-14.1-2.5c-1.5-0.5-3.1-1-4.7-1.5c-7.8-2.1-13-1.3-16.8,2.5c-5.1,5.1-11.8,4.3-16.7,3.7
				l-0.9-0.1c-3.5-0.3-7,0.9-9.7,3.2c-1,0.9-1.5,2.1-1.4,3.4l0.1,1c0.5,4.4,0.8,7.1-2.4,14.1c-3,6.6-1.3,11,1.7,16.9
				c0.6,1.2,1.2,2.2,1.8,3.2c2.2,3.7,4.2,6.9,2.8,14.8c-1,4.4,0.3,9,3.4,12.3c0.3-0.6,0.6-1.2,0.8-1.9c2.7-6.1,6.4-14.5,13.4-13.9
				c3.2,0.1,6,2,7.4,4.8C159.3,143.7,155.1,157.9,151.5,164L151.5,164z"/>
		</g>
		<g id="Group_5622" transform="translate(77.209 46.774)">
			<path id="Path_1962" class="st83" d="M126.7,90.7"/>
		</g>
		<g id="Group_5623" transform="translate(53.522 29.572)">
			<path id="Path_1963" class="st79" d="M121.8,139c-0.3,0-0.6-0.1-0.8-0.4l-4.5-5c0,0,0,0-0.1-0.1c-2.5-3.3,0.8-6.5,2.9-8.6
				c2.5-2.5,6.2-11.7,7.4-14.8l0.2-0.5c0.9-2.3,1.1-6.8,0.5-12.3c-0.6-5.3,4.7-13.9,5-14.2c0.3-0.5,1-0.6,1.5-0.3
				c0.5,0.3,0.6,0.9,0.3,1.4c-0.1,0.1-5.2,8.3-4.7,12.9c0.4,3.4,0.8,9.7-0.6,13.3l-0.2,0.5c-2.2,5.4-5.3,13-7.8,15.5
				c-3,3-3.7,4.5-2.7,5.8l4.4,5c0.4,0.4,0.3,1.1-0.1,1.5C122.3,138.9,122,139,121.8,139L121.8,139z"/>
		</g>
		<g id="Group_5624" transform="translate(57.552 70.729)">
			<path id="Path_1964" class="st79" d="M148.4,140.3c-4.4,0-14.8,0-21.7-3.5c-6.4-3.2-7.2-9.6-7.6-13.8c-0.1-0.5-0.1-1-0.2-1.5
				c-0.3-2.2-1-11.2-1.5-18.4c-0.1-0.6,0.4-1.1,0.9-1.1c0.6-0.1,1.1,0.4,1.1,0.9c0,0,0,0,0,0.1c0.7,10.3,1.2,16.6,1.4,18.3
				c0.1,0.5,0.1,1,0.2,1.5c0.5,4,1.1,9.5,6.5,12.2c6.5,3.2,16.5,3.2,20.7,3.2c0.6,0,1.1,0.5,1.1,1.1S149,140.3,148.4,140.3
				L148.4,140.3z"/>
		</g>
		<g id="Group_5625" transform="translate(57.02 62.718)">
			<path id="Path_1965" class="st79" d="M119.1,112.1c-0.6,0-1-0.4-1-1c-0.4-6.3-0.8-11.8-0.8-11.8c-0.1-0.6,0.4-1.1,0.9-1.2
				c0.6-0.1,1.1,0.4,1.2,0.9v0.1c0,0,0.3,5.5,0.8,11.8C120.2,111.5,119.7,112,119.1,112.1L119.1,112.1L119.1,112.1z"/>
		</g>
		<g id="Group_5628" transform="translate(60.536 100.037)">
			<g id="Group_5626" transform="translate(0.238 0.238)">
				<path id="Path_1966" class="st4" d="M234.2,138.3c1.1,0.8,5.5,4.3,6.4,8.2c1.1,4.5,0.6,8.9-1.1,15.6c-1.2,3.9-1.9,8-2.1,12.1
					c0,4.4,1,8.9,0.9,13.4c-0.3,8.4-3.7,15.5-12.1,18.2c-9.9,3.2-20.5-0.7-29-5.8c-18.1-10.6-32.1-26.9-50.6-37
					c-5.8-3.2-22.1-14.7-27.6-6.4c0,0,0.6-2.8,5-7.8c4-4.8,8.6-9,13.7-12.5c5.9-3.8,11.8-4.4,18.7-4.3c17.6,0.3,34.9,4.9,52.5,2.3
					c1-0.1,2-0.3,2.9-0.5l-0.1-0.6c-0.7-2.4-1.3-4.8-1.7-7.3c0-0.9-0.2-5.6-0.4-10c8.7,0.6,19.7,0.4,25.8,7.9
					c1.8,2.1,2.7,4.9,2.5,7.6c-0.4,2.4-1.5,4.6-3.2,6.3"/>
			</g>
			<g id="Group_5627">
				<path id="Path_1967" class="st84" d="M218.9,207.5c-6.5,0-13.8-2.3-21.6-6.9c-8.7-5.1-16.5-11.6-24.1-17.9
					c-8.3-6.8-16.8-13.9-26.4-19.2c-0.8-0.4-1.8-1-2.9-1.7c-6.9-4.1-19.7-11.7-24.2-4.8c-0.1,0.1-0.3,0.2-0.4,0.1
					c-0.2-0.1-0.2-0.2-0.2-0.4c0-0.1,0.6-2.9,5.1-8c4-4.8,8.6-9,13.7-12.6c5.9-3.8,11.8-4.5,18.9-4.3c6.5,0.1,13.2,0.8,19.6,1.5
					c10.8,1.2,21.9,2.4,32.9,0.8c0.9-0.1,1.7-0.3,2.6-0.4l-0.1-0.3c-0.8-2.4-1.3-4.8-1.7-7.3c0-0.7-0.1-4.2-0.4-10
					c0-0.1,0-0.2,0.1-0.3c0.1-0.1,0.2-0.1,0.3-0.1c1,0.1,2,0.1,3,0.2c8.2,0.5,17.6,1,23.1,7.8c1.9,2.2,2.8,5,2.6,7.9
					c-0.4,2.5-1.5,4.7-3.3,6.5c-0.1,0.1-0.4,0.2-0.5,0c-0.1-0.1-0.2-0.4,0-0.5l0,0c1.7-1.7,2.7-3.8,3.1-6.1c0.2-2.7-0.6-5.3-2.4-7.4
					c-5.4-6.5-14.5-7.1-22.6-7.5c-0.9-0.1-1.7-0.1-2.6-0.2c0.2,4,0.4,8.8,0.4,9.7c0.4,2.4,0.9,4.8,1.7,7.2l0.1,0.7
					c0,0.2-0.1,0.4-0.3,0.4l0,0c-0.9,0.2-1.9,0.3-2.9,0.5c-11.1,1.6-22.2,0.4-33-0.8c-6.4-0.7-13-1.4-19.5-1.5
					c-7.1-0.1-12.7,0.5-18.5,4.2c-5.1,3.5-9.6,7.7-13.6,12.5c-1.6,1.8-3,3.7-4.2,5.8c5.7-4.6,17.3,2.3,23.8,6.2
					c1.1,0.7,2.1,1.2,2.9,1.7c9.7,5.3,18.3,12.4,26.6,19.2c7.6,6.3,15.4,12.7,24,17.8c10.9,6.4,20.6,8.3,28.7,5.7
					c9.4-3,11.6-11.4,11.9-17.9c0-2.3-0.1-4.6-0.4-7c-0.3-2.1-0.4-4.3-0.4-6.4c0.2-3.8,0.8-7.6,1.9-11.2l0.2-0.9
					c1.6-6.3,2.3-10.9,1.1-15.5c-1-3.8-5.4-7.4-6.3-8c-0.2-0.1-0.2-0.3-0.1-0.5c0.1-0.2,0.3-0.2,0.5-0.1c1.3,1,5.6,4.5,6.6,8.4
					c1.2,4.7,0.5,9.4-1.1,15.8l-0.2,0.9c-1.1,3.6-1.7,7.3-1.9,11.1c0,2.1,0.2,4.2,0.4,6.3c0.3,2.3,0.5,4.7,0.4,7.1
					c-0.3,9.6-4.6,16-12.3,18.5C224,207.1,221.5,207.5,218.9,207.5z"/>
			</g>
		</g>
		<g id="Group_5629" transform="translate(122.386 100.21)">
			<path id="Path_1968" class="st75" d="M147.9,115.9c0,0,11.8-1,19.9,3.6c7.7,4.3-7.1,14-16.9,13.9l-2.9-5.9L147.9,115.9z"/>
		</g>
		<g id="Group_5630" transform="translate(76.771 88.545)">
			<path id="Path_1969" class="st79" d="M129.8,144.8L129.8,144.8c-0.6,0-1-0.5-1-1.1l0,0c0-2.3,0.1-4.7,0.1-6.9
				c0.2-8.7,0.5-16.9-2.3-25.1c-0.2-0.5,0.1-1.1,0.7-1.3c0.5-0.2,1.1,0.1,1.3,0.7l0,0c2.9,8.5,2.7,17.3,2.4,25.8
				c-0.1,2.3-0.1,4.6-0.1,6.9C130.8,144.3,130.4,144.8,129.8,144.8z"/>
		</g>
		<g id="Group_5631" transform="translate(60.059 111.013)">
			<path id="Path_1970" class="st84" d="M119.7,146.9c-0.6,0-1-0.5-1-1.1c0-0.1,0-0.1,0-0.2c0-0.1,0.7-3.1,5.3-8.3
				c4-4.8,8.7-9.1,13.9-12.7c2.8-1.8,5.8-3.1,9.1-3.7c0.6-0.1,1.1,0.3,1.2,0.9c0.1,0.5-0.3,1-0.8,1.2c-3,0.6-5.8,1.8-8.4,3.4
				c-5,3.5-9.5,7.6-13.4,12.3c-4.1,4.7-4.8,7.3-4.8,7.3C120.6,146.5,120.2,146.9,119.7,146.9z"/>
		</g>
		<g id="Group_5632" transform="translate(142.692 128.494)">
			<path id="Path_1971" class="st84" d="M166.7,305.2c-0.5,0-1-0.4-1-0.9c-3.8-23.8-3.8-48,0-71.8c1.6-9.9,4.2-19.8,6.7-29.3
				c2.3-8.8,4.7-17.8,6.3-26.8c1.2-5.7,1.5-11.5,0.9-17.3c-2-12.3-10-22.8-21.4-27.9c-0.5-0.2-0.8-0.8-0.6-1.3s0.8-0.8,1.3-0.6h0.1
				c12.1,5.4,20.6,16.6,22.7,29.6c0.6,6,0.3,12-0.9,17.9c-1.6,9.1-4,18.2-6.3,27c-2.5,9.5-5,19.3-6.6,29.1
				c-3.8,23.6-3.8,47.6,0,71.2c0.1,0.6-0.3,1.1-0.9,1.2l0,0C166.8,305.2,166.7,305.2,166.7,305.2z"/>
		</g>
		<g id="Group_5633" transform="translate(60.059 114.836)">
			<path id="Path_1972" class="st84" d="M219.3,193.4c-6.6,0-14-2.4-22-7.1c-8.7-5.1-16.6-11.6-24.2-17.9
				c-8.3-6.8-16.8-13.9-26.3-19.1c-0.8-0.4-1.8-1-2.9-1.7c-6.7-4-19.1-11.4-23.3-5.1c-0.3,0.5-1,0.6-1.5,0.3s-0.6-1-0.3-1.5l0,0
				c5.3-8,18.8,0.1,26.1,4.4c1.1,0.7,2.1,1.2,2.8,1.7c9.7,5.3,18.3,12.4,26.7,19.3c7.6,6.2,15.4,12.7,23.9,17.7
				c10.7,6.3,20.2,8.2,28.1,5.7c9-2.9,11.2-11,11.4-17.2c0-2.3-0.1-4.6-0.4-6.9c-0.3-2.1-0.4-4.3-0.4-6.5c0.2-3.9,0.8-7.7,1.9-11.4
				l0.2-0.9c1.5-6.2,2.2-10.7,1.1-15.1c-0.9-3.6-5.2-7-6.1-7.7c-0.5-0.4-0.6-1-0.2-1.5c0.4-0.5,1-0.6,1.5-0.2c1.3,1,5.8,4.6,6.8,8.8
				c1.2,4.9,0.5,9.6-1.1,16.1l-0.2,0.9c-1,3.5-1.7,7.2-1.9,10.9c0,2.1,0.2,4.2,0.4,6.2c0.3,2.4,0.5,4.8,0.4,7.1
				c-0.3,9.9-4.8,16.6-12.8,19.2C224.7,193,222,193.4,219.3,193.4z"/>
		</g>
		<g id="Group_5634" transform="translate(73.352 115.983)">
			<path id="Path_1973" class="st84" d="M187,134.7c-6.6,0-13.6-1.9-18.7-3.2l-0.4-0.1c-2.2-0.6-4.3-1.2-6.6-1.9
				c-11.4-3.4-24.3-7.2-34.8-0.6c-0.5,0.3-1.1,0.2-1.5-0.3c-0.3-0.5-0.2-1.1,0.3-1.5c0,0,0.1,0,0.1-0.1c11.3-7.1,24.7-3.1,36.5,0.4
				c2.3,0.7,4.5,1.3,6.6,1.9l0.4,0.1c7.9,2.1,21.2,5.6,28.4,0.5c0.5-0.4,1.1-0.3,1.5,0.2s0.3,1.1-0.2,1.5c0,0,0,0-0.1,0.1
				C195.1,133.8,191.1,134.9,187,134.7z"/>
		</g>
		<g id="Group_5635" transform="translate(73.75 122.737)">
			<path id="Path_1974" class="st84" d="M181,148.9c-3.4,0-6.8-0.5-10-1.4c-8-2.2-15.2-6.5-22.2-10.6c-2.7-1.6-5.5-3.2-8.3-4.7
				c-4.6-2.5-9.5-4.8-14.1-3.3c-0.6,0.2-1.1-0.1-1.3-0.7c-0.2-0.6,0.1-1.1,0.7-1.3l0,0c5.3-1.7,10.6,0.8,15.7,3.5
				c2.8,1.5,5.6,3.1,8.3,4.7c6.9,4,14,8.2,21.7,10.4c7.4,2.1,14.5,1.8,20-0.8c0.5-0.3,1.2-0.1,1.4,0.5c0.3,0.5,0.1,1.2-0.5,1.4
				c0,0,0,0-0.1,0C188.8,148.2,184.9,149,181,148.9z"/>
		</g>
		<g id="Group_5636" transform="translate(64.087 0.241)">
			<path id="Path_1975" d="M236.3,138c-2.3-5.1-2.3-5.7-1.5-15.5c0.1-1.7,0.3-3.6,0.4-5.9c1-14.4-5.5-17-12.4-19.8
				c-0.8-0.3-1.7-0.7-2.5-1c-5.8-2.5-6.7-4.6-8.7-8.7c-0.6-1.3-1.2-2.7-2.1-4.4c-3.5-6.5-9.9-9.4-19.1-8.7c-5.2,0.4-9.2-1-13.4-2.4
				c-1.5-0.5-3.1-1-4.8-1.5c-5.2-1.4-12.9-2.7-18.5,3c-4.5,4.5-10.5,3.8-15.3,3.2l-0.9-0.1c-4.1-0.3-8.1,1-11.1,3.7
				c-1.4,1.2-2.1,3-1.9,4.9l0.1,1c0.5,4.2,0.8,6.6-2.3,13.2c-3.4,7.3-1.4,12.2,1.7,18.5c0.6,1.2,1.2,2.3,1.8,3.3
				c2.1,3.6,3.8,6.4,2.6,13.6c-1.2,5.5,0.7,11.2,5,14.9c0.3,0.2,0.8,0.2,1-0.2c0,0,0-0.1,0.1-0.1c0.5-0.9,1-2.1,1.5-3.3
				c2.5-5.6,5.9-13.3,11.7-12.8c2.5,0.1,4.8,1.6,5.9,3.8c3.4,6.6,0,19.8-3.9,26.3c0,0.4,0,0.7-0.1,1.1c1.7,12.4,11.2,38.3,26.6,45.2
				c3.9,1.7,8.2,2.5,12.5,2.5c7.2-0.2,14.3-1.8,20.9-4.7c0.9-0.4,1.5-1.3,1.5-2.3c0.1-1.8,0.3-3.7,0.7-5.5
				c1.3-6.4,8.5-18.1,14.4-27.6c1.7-2.7,3.2-5.2,4.5-7.3C236.9,153.8,239,143.9,236.3,138z"/>
		</g>
		<g id="Group_5637" transform="translate(56.921 38.838)">
			<path id="Path_1976" class="st4" d="M149.2,95.9c-6.9-1.9-22.5-6.2-31-6.8c-0.6,0-1-0.5-1-1.1s0.5-1,1.1-1
				c9,0.7,25.9,5.4,32.3,7.1l0.9,0.3l1.3,0.4c-1,0.3-1.9,0.8-2.6,1.5L149.2,95.9z"/>
		</g>
		<g id="Group_5638" transform="translate(121.67 99.558)">
			<path id="Path_1977" class="st84" d="M163.5,146c-0.6,0-1.1-0.5-1-1.1c0-0.4,0.2-0.8,0.6-1c7.9-3.5,12.2-7.6,12.7-12.1
				c0.2-2.5-0.6-5-2.2-6.8c-5.2-6.3-14.2-6.8-22.1-7.3c-1-0.1-2-0.1-3-0.2c-0.6,0-1-0.5-1-1.1s0.5-1,1.1-1c0,0,0,0,0.1,0
				c1,0.1,1.9,0.1,2.9,0.2c8.4,0.5,17.9,1.1,23.6,8c2,2.3,3,5.4,2.7,8.4c-0.7,5.4-5.4,10-14,13.8C163.8,146,163.7,146,163.5,146z"/>
		</g>
		<g id="Group_5639" transform="translate(55.199 39.953)">
			<path id="Path_1978" d="M122,97.6c0.1-1.3,0.2-2.8,0.5-4.3c8.5,1.2,17,3,25.2,5.4l1,0.3c1.1-1.8,2.5-3.4,4.3-4.7l-2.7-0.8
				c-0.7-0.2-16.9-5-28.2-6c-2.5-0.2-4.7,1.5-5,4c-0.2,1.5-0.5,3.7-0.7,6"/>
		</g>
		<g id="Group_5640" transform="translate(121.444 95.309)">
			<path id="Path_1979" class="st79" d="M149.9,138.4c-0.8-2.5-1.4-5-1.7-7.6c0-1.6-0.8-16.5-0.8-16.6l1.9-0.7c0,0.7,1,15.7,1,17.3
				c0.4,2.4,0.9,4.7,1.6,7L149.9,138.4z"/>
		</g>
		<g id="Group_5641" transform="translate(78.712 107.382)">
			<path id="Path_1980" class="st84" d="M179.3,129c-7.2-0.1-14.4-0.6-21.5-1.6c-6.4-0.7-13-1.4-19.4-1.5c-3.3-0.1-6.5,0.1-9.7,0.7
				c-0.6,0.1-1.1-0.3-1.2-0.9c-0.1-0.5,0.3-1,0.8-1.2c3.4-0.6,6.8-0.9,10.2-0.7c6.6,0.1,13.2,0.8,19.6,1.5
				c10.7,1.2,21.8,2.4,32.7,0.8c9.8-1.4,16.1-3.7,18.8-6.6c0.4-0.4,1-0.5,1.5-0.1c0.4,0.4,0.5,1,0.1,1.5l0,0
				c-3.1,3.3-9.6,5.7-20.1,7.2C187.2,128.7,183.3,129,179.3,129z"/>
		</g>
		<g id="Group_5642" transform="translate(63.545 171.933)">
			<path id="Path_1981" class="st83" d="M120.3,149.4"/>
		</g>
		<g id="Group_5643" transform="translate(0 127.31)">
			<path id="Path_1982" class="st84" d="M91.5,297.3c-0.6,0-1.1-0.5-1.1-1c0-0.2,0.1-0.4,0.2-0.6c19.4-26.7,30-58,40.8-93.1
				c0.9-3,1.8-6,2.7-8.9c2.6-9.6,5.8-19.1,9.6-28.3c3-7.2,6.8-14.1,11.5-20.5c6.1-8,14.6-13.7,24.3-16.3c0.5-0.2,1.1,0.1,1.3,0.7
				c0.2,0.5-0.1,1.1-0.7,1.3H180c-9.2,2.5-17.4,7.9-23.2,15.5c-4.5,6.2-8.3,12.9-11.2,20c-3.8,9.2-7,18.5-9.6,28.1
				c-0.9,2.9-1.8,6-2.7,9c-10.9,35.3-21.4,66.7-41.1,93.7C92.2,297.2,91.9,297.3,91.5,297.3z"/>
		</g>
		<g id="Group_5644" transform="translate(40.689 134.333)">
			<path id="Path_1983" class="st84" d="M110.6,311c-0.6,0-1.1-0.5-1-1.1c0-0.2,0-0.3,0.1-0.5l0.4-0.7c10-18.5,20.4-37.6,28-57.6
				c7.7-20.2,13.3-41.1,16.6-62.5c2.4-15.4,1.5-26.8-3-37.1c-3.8-8.8-11.4-15.6-19.2-17.3c-5.9-1.2-12.1,0.6-16.4,4.9
				c-0.4,0.4-1.1,0.4-1.5,0s-0.4-1.1,0-1.5l0,0c4.8-4.8,11.6-6.8,18.3-5.4c8.5,1.8,16.6,9.1,20.7,18.5c6,13.9,4.7,28.5,3.2,38.3
				c-3.3,21.5-8.9,42.6-16.7,62.9c-7.7,20.1-18.1,39.3-28.1,57.8l-0.4,0.7C111.4,310.8,111,311,110.6,311z"/>
		</g>
	</g>
	<g id="Group_5648" transform="translate(140.175 339.572)">
		<g id="Path_1756" transform="translate(0.043)">
			<g id="Group_5646" transform="translate(2.096 1.215)">
				<path id="Path_1984" class="st4" d="M86.9,181.9l-16.4-9.5l16.3-9.5l16.4,9.5L86.9,181.9z"/>
			</g>
			<g id="Group_5647">
				<path id="Path_1985" class="st3" d="M89,181.3l13.2-7.7L88.9,166l-13.2,7.7L89,181.3 M89,184.9l-19.5-11.3l19.4-11.3l19.5,11.3
					L89,184.9z"/>
			</g>
		</g>
		<g id="Path_1757" transform="translate(13.282 7.668)">
			<path id="Path_1986" class="st3" d="M95.1,166L95,189.3l-19.4,11.3l0.1-23.3L95.1,166z"/>
		</g>
		<g id="Path_1758" transform="translate(0 7.665)">
			<path id="Path_1987" class="st7" d="M89,177.2v23.3l-19.5-11.3l0.1-23.3L89,177.2z"/>
		</g>
	</g>
	<g id="Group_5651" transform="translate(383.537 200.993)">
		<g id="Path_1756-2" transform="translate(0.049 0)">
			<g id="Group_5649" transform="translate(2.415 1.399)">
				<path id="Path_1988" class="st4" d="M203.7,119.9L184.8,109l18.8-10.9l18.9,10.9L203.7,119.9z"/>
			</g>
			<g id="Group_5650">
				<path id="Path_1989" class="st3" d="M206.1,119.2l15.2-8.8l-15.4-8.9l-15.2,8.8L206.1,119.2 M206.1,123.3l-22.5-13l22.3-13
					l22.5,13L206.1,123.3z"/>
			</g>
		</g>
		<g id="Path_1757-2" transform="translate(15.295 8.83)">
			<path id="Path_1990" class="st3" d="M213.2,101.5l-0.1,26.8l-22.3,13l0.1-26.8L213.2,101.5z"/>
		</g>
		<g id="Path_1758-2" transform="translate(0 8.827)">
			<path id="Path_1991" class="st7" d="M206.1,114.5l-0.1,26.8l-22.5-13l0.1-26.8L206.1,114.5z"/>
		</g>
	</g>
	<g id="Group_5654" transform="translate(87.398 300.442)">
		<g id="Path_1756-3" transform="translate(0.076)">
			<g id="Group_5652" transform="translate(3.689 2.137)">
				<path id="Path_1992" class="st4" d="M75.4,178.4l-28.9-16.7L75.2,145l28.9,16.7L75.4,178.4z"/>
			</g>
			<g id="Group_5653">
				<path id="Path_1993" class="st3" d="M79.1,177.4l23.3-13.5l-23.5-13.6l-23.3,13.5L79.1,177.4 M79.1,183.7l-34.3-19.8L78.9,144
					l34.3,19.8L79.1,183.7z"/>
			</g>
		</g>
		<g id="Path_1757-3" transform="translate(23.37 13.491)">
			<path id="Path_1994" class="st3" d="M89.9,150.4l-0.1,40.9l-34.1,19.8l0.1-40.9L89.9,150.4z"/>
		</g>
		<g id="Path_1758-3" transform="translate(0 13.487)">
			<path id="Path_1995" class="st7" d="M79.2,170.2l-0.1,40.9l-34.3-19.8l0.1-40.9L79.2,170.2z"/>
		</g>
	</g>
</g>
</svg>
